<svg width="32" height="32" viewBox="0 0 32 32" fill="none" xmlns="http://www.w3.org/2000/svg">
<mask id="mask0_936_8574" style="mask-type:alpha" maskUnits="userSpaceOnUse" x="0" y="0" width="32" height="32">
<path d="M27.2581 13.3225H25.8765L22.0323 9.47824C21.8711 9.31578 21.6792 9.18698 21.4679 9.09932C21.2565 9.01166 21.0298 8.9669 20.8009 8.96763H16.371V6.35473H18.9839C19.2149 6.35473 19.4364 6.26297 19.5997 6.09963C19.7631 5.93629 19.8548 5.71476 19.8548 5.48376C19.8548 5.25277 19.7631 5.03123 19.5997 4.86789C19.4364 4.70456 19.2149 4.61279 18.9839 4.61279H12.0161C11.7851 4.61279 11.5636 4.70456 11.4003 4.86789C11.2369 5.03123 11.1452 5.25277 11.1452 5.48376C11.1452 5.71476 11.2369 5.93629 11.4003 6.09963C11.5636 6.26297 11.7851 6.35473 12.0161 6.35473H14.629V8.96763H8.09677C7.63478 8.96763 7.19172 9.15116 6.86504 9.47783C6.53836 9.80451 6.35484 10.2476 6.35484 10.7096V16.3709H3.74194V13.758C3.74194 13.527 3.65017 13.3054 3.48684 13.1421C3.3235 12.9787 3.10196 12.887 2.87097 12.887C2.63997 12.887 2.41844 12.9787 2.2551 13.1421C2.09176 13.3054 2 13.527 2 13.758V20.7257C2 20.9567 2.09176 21.1782 2.2551 21.3416C2.41844 21.5049 2.63997 21.5967 2.87097 21.5967C3.10196 21.5967 3.3235 21.5049 3.48684 21.3416C3.65017 21.1782 3.74194 20.9567 3.74194 20.7257V18.1128H6.35484V20.3653C6.35411 20.5942 6.39887 20.8209 6.48653 21.0323C6.57418 21.2436 6.70299 21.4355 6.86544 21.5967L11.1452 25.8764C11.3063 26.0388 11.4982 26.1676 11.7096 26.2553C11.921 26.343 12.1477 26.3877 12.3765 26.387H20.8009C21.0298 26.3877 21.2565 26.343 21.4679 26.2553C21.6792 26.1676 21.8711 26.0388 22.0323 25.8764L25.8765 22.0321H27.2581C27.7201 22.0321 28.1631 21.8486 28.4898 21.5219C28.8165 21.1953 29 20.7522 29 20.2902V15.0644C29 14.6024 28.8165 14.1593 28.4898 13.8327C28.1631 13.506 27.7201 13.3225 27.2581 13.3225ZM27.2581 20.2902H25.5161C25.4017 20.2901 25.2884 20.3126 25.1827 20.3563C25.0769 20.4 24.9809 20.4641 24.8999 20.545L20.8009 24.6451H12.3765L8.09677 20.3653V10.7096H20.8009L24.8999 14.8096C24.9809 14.8905 25.0769 14.9546 25.1827 14.9983C25.2884 15.042 25.4017 15.0645 25.5161 15.0644H27.2581V20.2902Z" fill="black"/>
</mask>
<g mask="url(#mask0_936_8574)">
<rect width="32" height="32" fill="black"/>
</g>
</svg>
