<svg width="33" height="33" viewBox="0 0 33 33" fill="none" xmlns="http://www.w3.org/2000/svg">
<g clip-path="url(#clip0_795_1277)">
<g clip-path="url(#clip1_795_1277)">
<path d="M7.37765 19.7277H6.99055V20.1148H7.37765V19.7277ZM19.7648 9.27607C19.6621 9.27607 19.5636 9.31685 19.4911 9.38945C19.4185 9.46204 19.3777 9.5605 19.3777 9.66316C19.3777 9.76583 19.4185 9.86429 19.4911 9.93688C19.5636 10.0095 19.6621 10.0503 19.7648 10.0503V9.27607ZM27.5067 21.2761V21.6632H27.8938V21.2761H27.5067ZM25.5712 21.2761V20.889H25.1841V21.2761H25.5712ZM27.5067 17.7922C27.6094 17.7922 27.7078 17.7514 27.7804 17.6788C27.853 17.6063 27.8938 17.5078 27.8938 17.4051C27.8938 17.3025 27.853 17.204 27.7804 17.1314C27.7078 17.0588 27.6094 17.018 27.5067 17.018V17.7922ZM27.5067 20.1148C27.6094 20.1148 27.7078 20.074 27.7804 20.0014C27.853 19.9288 27.8938 19.8304 27.8938 19.7277C27.8938 19.625 27.853 19.5266 27.7804 19.454C27.7078 19.3814 27.6094 19.3406 27.5067 19.3406V20.1148ZM5.05507 9.66316C4.9524 9.66316 4.85394 9.70395 4.78135 9.77654C4.70875 9.84914 4.66797 9.9476 4.66797 10.0503C4.66797 10.1529 4.70875 10.2514 4.78135 10.324C4.85394 10.3966 4.9524 10.4374 5.05507 10.4374V9.66316ZM9.70023 10.4374C9.80289 10.4374 9.90135 10.3966 9.97395 10.324C10.0465 10.2514 10.0873 10.1529 10.0873 10.0503C10.0873 9.9476 10.0465 9.84914 9.97395 9.77654C9.90135 9.70395 9.80289 9.66316 9.70023 9.66316V10.4374ZM12.0228 9.66316C11.9201 9.66316 11.8217 9.70395 11.7491 9.77654C11.6765 9.84914 11.6357 9.9476 11.6357 10.0503C11.6357 10.1529 11.6765 10.2514 11.7491 10.324C11.8217 10.3966 11.9201 10.4374 12.0228 10.4374V9.66316ZM13.5712 10.4374C13.6739 10.4374 13.7723 10.3966 13.8449 10.324C13.9175 10.2514 13.9583 10.1529 13.9583 10.0503C13.9583 9.9476 13.9175 9.84914 13.8449 9.77654C13.7723 9.70395 13.6739 9.66316 13.5712 9.66316V10.4374ZM9.31313 11.2116C9.21047 11.2116 9.11201 11.2523 9.03941 11.3249C8.96682 11.3975 8.92603 11.496 8.92603 11.5987C8.92603 11.7013 8.96682 11.7998 9.03941 11.8724C9.11201 11.945 9.21047 11.9857 9.31313 11.9857V11.2116ZM17.8293 11.9857C17.932 11.9857 18.0304 11.945 18.103 11.8724C18.1756 11.7998 18.2164 11.7013 18.2164 11.5987C18.2164 11.496 18.1756 11.3975 18.103 11.3249C18.0304 11.2523 17.932 11.2116 17.8293 11.2116V11.9857ZM6.60345 13.5341C6.50079 13.5341 6.40233 13.5749 6.32974 13.6475C6.25714 13.7201 6.21636 13.8186 6.21636 13.9212C6.21636 14.0239 6.25714 14.1224 6.32974 14.195C6.40233 14.2675 6.50079 14.3083 6.60345 14.3083V13.5341ZM15.1196 14.3083C15.2223 14.3083 15.3207 14.2675 15.3933 14.195C15.4659 14.1224 15.5067 14.0239 15.5067 13.9212C15.5067 13.8186 15.4659 13.7201 15.3933 13.6475C15.3207 13.5749 15.2223 13.5341 15.1196 13.5341V14.3083ZM8.92603 7.72768H18.2164V6.95349H8.92603V7.72768ZM19.3777 8.88897V19.7277H20.1519V8.88897H19.3777ZM19.7648 19.3406H7.37765V20.1148H19.7648V19.3406ZM7.76474 19.7277V8.88897H6.99055V19.7277H7.76474ZM18.2164 7.72768C18.5244 7.72768 18.8198 7.85003 19.0375 8.06781C19.2553 8.2856 19.3777 8.58098 19.3777 8.88897H20.1519C20.1519 8.6348 20.1018 8.38312 20.0045 8.14829C19.9073 7.91347 19.7647 7.7001 19.585 7.52038C19.4053 7.34065 19.1919 7.19809 18.9571 7.10082C18.7222 7.00355 18.4706 6.95349 18.2164 6.95349V7.72768ZM8.92603 6.95349C8.41271 6.95349 7.92041 7.15741 7.55744 7.52038C7.19447 7.88335 6.99055 8.37565 6.99055 8.88897H7.76474C7.76474 8.58098 7.88709 8.2856 8.10488 8.06781C8.32266 7.85003 8.61804 7.72768 8.92603 7.72768V6.95349ZM19.7648 10.0503H24.8148V9.27607H19.7648V10.0503ZM25.9246 10.8701L27 14.3641L27.7397 14.1365L26.6648 10.6425L25.9246 10.8701ZM27.1196 15.1611V21.2761H27.8938V15.1611H27.1196ZM23.3152 19.3406H19.7648V20.1148H23.3152V19.3406ZM27.5067 20.889H25.5046V21.6632H27.5067V20.889ZM25.231 20.7756L24.1363 19.6809L23.5889 20.2282L24.6836 21.3229L25.231 20.7756ZM23.3152 20.1148C23.3661 20.1148 23.4161 20.1248 23.4632 20.1442C23.5102 20.1637 23.5529 20.1922 23.5889 20.2282L24.1363 19.6809C23.9185 19.4631 23.6232 19.3407 23.3152 19.3406V20.1148ZM27 14.3641C27.0794 14.6223 27.1197 14.8909 27.1196 15.1611H27.8938C27.8938 14.8139 27.8419 14.4682 27.7397 14.1365L27 14.3641ZM25.5046 20.889C25.402 20.889 25.3035 20.8482 25.231 20.7756L24.6836 21.3229C24.9013 21.5407 25.1967 21.6631 25.5046 21.6632V20.889ZM24.8148 10.0503C25.0632 10.0503 25.305 10.1299 25.5047 10.2775C25.7045 10.4251 25.8516 10.6328 25.9246 10.8701L26.6648 10.6425C26.5431 10.2468 26.2977 9.90055 25.9646 9.65461C25.6316 9.40866 25.2288 9.27599 24.8148 9.27607V10.0503ZM24.0228 23.2116C24.0228 23.6222 23.8597 24.0161 23.5693 24.3065C23.2789 24.5968 22.8851 24.76 22.4745 24.76V25.5342C23.0904 25.5342 23.6812 25.2895 24.1168 24.8539C24.5523 24.4183 24.797 23.8276 24.797 23.2116H24.0228ZM22.4745 24.76C22.0638 24.76 21.67 24.5968 21.3796 24.3065C21.0892 24.0161 20.9261 23.6222 20.9261 23.2116H20.1519C20.1519 23.8276 20.3966 24.4183 20.8321 24.8539C21.2677 25.2895 21.8585 25.5342 22.4745 25.5342V24.76ZM20.9261 23.2116C20.9261 22.8009 21.0892 22.4071 21.3796 22.1167C21.67 21.8263 22.0638 21.6632 22.4745 21.6632V20.889C21.8585 20.889 21.2677 21.1337 20.8321 21.5693C20.3966 22.0048 20.1519 22.5956 20.1519 23.2116H20.9261ZM22.4745 21.6632C22.8851 21.6632 23.2789 21.8263 23.5693 22.1167C23.8597 22.4071 24.0228 22.8009 24.0228 23.2116H24.797C24.797 22.5956 24.5523 22.0048 24.1168 21.5693C23.6812 21.1337 23.0904 20.889 22.4745 20.889V21.6632ZM13.5712 23.2116C13.5712 23.6222 13.4081 24.0161 13.1177 24.3065C12.8273 24.5968 12.4335 24.76 12.0228 24.76V25.5342C12.6388 25.5342 13.2295 25.2895 13.6651 24.8539C14.1007 24.4183 14.3454 23.8276 14.3454 23.2116H13.5712ZM12.0228 24.76C11.6121 24.76 11.2183 24.5968 10.9279 24.3065C10.6375 24.0161 10.4744 23.6222 10.4744 23.2116H9.70023C9.70023 23.8276 9.94493 24.4183 10.3805 24.8539C10.8161 25.2895 11.4068 25.5342 12.0228 25.5342V24.76ZM10.4744 23.2116C10.4744 22.8009 10.6375 22.4071 10.9279 22.1167C11.2183 21.8263 11.6121 21.6632 12.0228 21.6632V20.889C11.4068 20.889 10.8161 21.1337 10.3805 21.5693C9.94493 22.0048 9.70023 22.5956 9.70023 23.2116H10.4744ZM12.0228 21.6632C12.4335 21.6632 12.8273 21.8263 13.1177 22.1167C13.4081 22.4071 13.5712 22.8009 13.5712 23.2116H14.3454C14.3454 22.5956 14.1007 22.0048 13.6651 21.5693C13.2295 21.1337 12.6388 20.889 12.0228 20.889V21.6632ZM13.9583 23.5987H20.539V22.8245H13.9583V23.5987ZM9.24655 23.5987H10.0873V22.8245H9.24655V23.5987ZM8.97287 22.7111L7.65132 21.3895L7.10397 21.9369L8.42552 23.2584L8.97287 22.7111ZM9.24655 22.8245C9.14389 22.8245 9.04545 22.7837 8.97287 22.7111L8.42552 23.2584C8.64325 23.4762 8.93858 23.5986 9.24655 23.5987V22.8245ZM24.4099 23.5987H25.9583V22.8245H24.4099V23.5987ZM25.5712 21.6632H27.8938V20.889H25.5712V21.6632ZM27.8938 21.6632V22.8245H28.668V21.6632H27.8938ZM27.8938 22.8245H25.9583V23.5987H27.8938V22.8245ZM25.1841 21.2761V22.8245H25.9583V21.2761H25.1841ZM25.9583 22.8245H25.1841C25.1841 23.0298 25.2657 23.2267 25.4109 23.3719C25.5561 23.5171 25.753 23.5987 25.9583 23.5987V22.8245ZM27.8938 22.8245V23.5987C28.0991 23.5987 28.2961 23.5171 28.4412 23.3719C28.5864 23.2267 28.668 23.0298 28.668 22.8245H27.8938ZM27.8938 21.6632H28.668C28.668 21.4579 28.5864 21.2609 28.4412 21.1158C28.2961 20.9706 28.0991 20.889 27.8938 20.889V21.6632ZM26.3454 17.7922H27.5067V17.018H26.3454V17.7922ZM27.5067 19.3406H26.3454V20.1148H27.5067V19.3406ZM25.5712 17.7922V19.3406H26.3454V17.7922H25.5712ZM26.3454 19.3406H25.5712C25.5712 19.5459 25.6528 19.7429 25.798 19.8881C25.9432 20.0332 26.1401 20.1148 26.3454 20.1148V19.3406ZM26.3454 17.018C26.1401 17.018 25.9432 17.0996 25.798 17.2448C25.6528 17.39 25.5712 17.5869 25.5712 17.7922H26.3454V17.018ZM6.21636 20.1148H8.15184V19.3406H6.21636V20.1148ZM8.15184 20.1148V21.2761H8.92603V20.1148H8.15184ZM8.15184 21.2761H6.21636V22.0503H8.15184V21.2761ZM5.44216 20.1148V21.2761H6.21636V20.1148H5.44216ZM6.21636 21.2761H5.44216C5.44216 21.4814 5.52373 21.6783 5.66892 21.8235C5.81411 21.9687 6.01103 22.0503 6.21636 22.0503V21.2761ZM8.15184 21.2761V22.0503C8.35717 22.0503 8.55409 21.9687 8.69928 21.8235C8.84447 21.6783 8.92603 21.4814 8.92603 21.2761H8.15184ZM8.15184 20.1148H8.92603C8.92603 19.9095 8.84447 19.7126 8.69928 19.5674C8.55409 19.4222 8.35717 19.3406 8.15184 19.3406V20.1148ZM6.21636 19.3406C6.01103 19.3406 5.81411 19.4222 5.66892 19.5674C5.52373 19.7126 5.44216 19.9095 5.44216 20.1148H6.21636V19.3406ZM22.4745 23.2116V23.9858C22.6798 23.9858 22.8767 23.9042 23.0219 23.759C23.1671 23.6138 23.2486 23.4169 23.2486 23.2116H22.4745ZM22.4745 23.2116H21.7003C21.7003 23.4169 21.7818 23.6138 21.927 23.759C22.0722 23.9042 22.2691 23.9858 22.4745 23.9858V23.2116ZM22.4745 23.2116V22.4374C22.2691 22.4374 22.0722 22.519 21.927 22.6641C21.7818 22.8093 21.7003 23.0063 21.7003 23.2116H22.4745ZM22.4745 23.2116H23.2486C23.2486 23.0063 23.1671 22.8093 23.0219 22.6641C22.8767 22.519 22.6798 22.4374 22.4745 22.4374V23.2116ZM12.0228 23.2116V23.9858C12.2281 23.9858 12.4251 23.9042 12.5702 23.759C12.7154 23.6138 12.797 23.4169 12.797 23.2116H12.0228ZM12.0228 23.2116H11.2486C11.2486 23.4169 11.3302 23.6138 11.4754 23.759C11.6206 23.9042 11.8175 23.9858 12.0228 23.9858V23.2116ZM12.0228 23.2116V22.4374C11.8175 22.4374 11.6206 22.519 11.4754 22.6641C11.3302 22.8093 11.2486 23.0063 11.2486 23.2116H12.0228ZM12.0228 23.2116H12.797C12.797 23.0063 12.7154 22.8093 12.5702 22.6641C12.4251 22.519 12.2281 22.4374 12.0228 22.4374V23.2116ZM21.7003 13.3646V11.5987H20.9261V13.3646H21.7003ZM24.6093 10.8245H21.7003V11.5987H24.6093V10.8245ZM24.6093 11.5987L25.577 14.6954L26.316 14.4643L25.3483 11.3676L24.6093 11.5987ZM23.1418 14.6954L21.7003 13.3646L21.175 13.9336L22.6169 15.2645L23.1418 14.6954ZM23.1422 15.4696H25.577V14.6954H23.1418L23.1422 15.4696ZM22.6169 15.2645C22.7599 15.3964 22.9477 15.4696 23.1422 15.4696L23.1418 14.6954L22.6169 15.2645ZM25.577 14.6954V15.4696C25.6985 15.4696 25.8182 15.4411 25.9266 15.3862C26.035 15.3314 26.129 15.2518 26.2009 15.154C26.2728 15.0561 26.3207 14.9427 26.3407 14.8229C26.3607 14.7031 26.3523 14.5803 26.316 14.4643L25.577 14.6954ZM24.6093 11.5987L25.3483 11.3676C25.2991 11.21 25.2008 11.0726 25.0678 10.9749C24.9348 10.8771 24.7744 10.8244 24.6093 10.8245V11.5987ZM21.7003 11.5987V10.8245C21.4949 10.8245 21.298 10.906 21.1528 11.0512C21.0076 11.1964 20.9261 11.3933 20.9261 11.5987H21.7003ZM20.9261 13.3646C20.926 13.4715 20.9481 13.5772 20.991 13.6752C21.0338 13.7731 21.0964 13.8611 21.175 13.9336L21.7003 13.3646H20.9261ZM5.05507 10.4374H9.70023V9.66316H5.05507V10.4374ZM12.0228 10.4374H13.5712V9.66316H12.0228V10.4374ZM9.31313 11.9857H17.8293V11.2116H9.31313V11.9857ZM6.60345 14.3083H15.1196V13.5341H6.60345V14.3083Z" fill="white"/>
</g>
</g>
<defs>
<clipPath id="clip0_795_1277">
<rect width="32" height="32" fill="white" transform="translate(0.667969 0.115234)"/>
</clipPath>
<clipPath id="clip1_795_1277">
<rect width="32" height="32" fill="white" transform="translate(0.667969 0.115234)"/>
</clipPath>
</defs>
</svg>
