<svg width="33" height="32" viewBox="0 0 33 32" fill="none" xmlns="http://www.w3.org/2000/svg">
<g clip-path="url(#clip0_187_24136)">
<g clip-path="url(#clip1_187_24136)">
<g clip-path="url(#clip2_187_24136)">
<path d="M12.9909 6.75911L13.3391 6.6349L13.233 6.33331L12.9206 6.39393L12.9909 6.75911ZM18.5414 6.83051L18.6206 6.46719L18.3101 6.39839L18.1962 6.697L18.5414 6.83051ZM21.6942 22.8708C21.5961 22.8708 21.5022 22.91 21.4328 22.9797C21.3635 23.0495 21.3245 23.1441 21.3245 23.2427C21.3245 23.3413 21.3635 23.4359 21.4328 23.5056C21.5022 23.5755 21.5961 23.6146 21.6942 23.6146V22.8708ZM23.173 23.2427H23.5427C23.5427 23.1441 23.5037 23.0495 23.4344 22.9797C23.3651 22.91 23.2711 22.8708 23.173 22.8708V23.2427ZM20.9549 21.3833C21.0529 21.3833 21.1469 21.3442 21.2162 21.2745C21.2856 21.2047 21.3245 21.1101 21.3245 21.0114C21.3245 20.9128 21.2856 20.8182 21.2162 20.7485C21.1469 20.6788 21.0529 20.6397 20.9549 20.6397V21.3833ZM19.476 21.0114H19.1063C19.1063 21.1101 19.1454 21.2047 19.2147 21.2745C19.284 21.3442 19.378 21.3833 19.476 21.3833V21.0114ZM23.1472 21.8166C23.1634 21.9139 23.2174 22.0007 23.2973 22.0579C23.3772 22.1152 23.4764 22.1381 23.5732 22.1217C23.6699 22.1054 23.7563 22.051 23.8131 21.9706C23.87 21.8902 23.8928 21.7905 23.8766 21.6932L23.1472 21.8166ZM19.5019 22.4369C19.4856 22.3396 19.4317 22.2528 19.3517 22.1956C19.2718 22.1384 19.1726 22.1153 19.0759 22.1318C18.9791 22.1482 18.8928 22.2025 18.836 22.2828C18.7791 22.3632 18.7562 22.4631 18.7725 22.5604L19.5019 22.4369ZM22.8033 24.7302C22.8033 24.8288 22.8422 24.9234 22.9116 24.9931C22.9809 25.0629 23.075 25.1021 23.173 25.1021C23.2711 25.1021 23.3651 25.0629 23.4344 24.9931C23.5037 24.9234 23.5427 24.8288 23.5427 24.7302H22.8033ZM19.8458 19.524C19.8458 19.4253 19.8068 19.3307 19.7375 19.261C19.6682 19.1913 19.5741 19.1522 19.476 19.1522C19.378 19.1522 19.284 19.1913 19.2147 19.261C19.1454 19.3307 19.1063 19.4253 19.1063 19.524H19.8458ZM10.4097 7.93348C11.2631 7.57207 12.1516 7.30088 13.0607 7.12428L12.9206 6.39393C11.9611 6.58036 11.0234 6.86663 10.1228 7.24812L10.4097 7.93348ZM6.23951 9.69988L10.4097 7.93348L10.1228 7.24812L5.95263 9.01451L6.23951 9.69988ZM7.17853 13.165L6.23951 9.69988L5.526 9.89547L6.4654 13.3602L7.17853 13.165ZM9.39005 12.8872L7.17853 13.165L7.27059 13.9028L9.48173 13.625L9.39005 12.8872ZM9.90762 24.3274L10.2207 13.6473L9.48173 13.625L9.16861 24.3051L9.90762 24.3274ZM15.7791 25.4739C13.8779 25.4756 11.9859 25.2093 10.1583 24.6826L9.95421 25.3974C11.8482 25.9432 13.8089 26.2194 15.7791 26.2177V25.4739ZM24.01 13.165L21.7984 12.8872L21.7068 13.625L23.918 13.9031L24.01 13.165ZM24.9491 9.69988L24.01 13.165L24.7231 13.3606L25.6625 9.89547L24.9491 9.69988ZM20.7789 7.93348L24.9491 9.69988L25.2362 9.01451L21.0662 7.24812L20.7789 7.93348ZM18.462 7.19345C19.2532 7.36824 20.0288 7.6159 20.7789 7.93348L21.0662 7.24812C20.2764 6.91361 19.4576 6.65222 18.6206 6.46719L18.462 7.19345ZM15.7791 6.88034C14.8921 6.88094 14.0079 6.77824 13.1443 6.57429L12.975 7.29832C13.8759 7.5114 14.8145 7.62408 15.7791 7.62408V6.88034ZM15.7791 8.36783C15.2724 8.36791 14.7768 8.2184 14.3539 7.93786C13.9308 7.65732 13.599 7.25807 13.3994 6.7896L12.7199 7.08301C12.9765 7.68516 13.4032 8.19833 13.947 8.55892C14.4908 8.91951 15.1278 9.11167 15.7791 9.11157V8.36783ZM13.3994 6.7896C13.3777 6.7387 13.3576 6.6871 13.3391 6.6349L12.6423 6.88331C12.6663 6.95099 12.6922 7.01719 12.7199 7.08301L13.3994 6.7896ZM18.4139 6.57429C17.5503 6.77823 16.6662 6.88093 15.7791 6.88034V7.62408C16.7437 7.62408 17.6823 7.5114 18.5833 7.29832L18.4139 6.57429ZM18.1962 6.697C18.1844 6.72823 18.1717 6.75923 18.1588 6.78997L18.8383 7.08301C18.8549 7.04359 18.8712 7.0038 18.8864 6.96364L18.1962 6.697ZM18.1588 6.78997C17.9591 7.2583 17.6272 7.65739 17.2043 7.9378C16.7812 8.2182 16.2857 8.36797 15.7791 8.36783V9.11157C17.1522 9.11157 18.33 8.27523 18.8383 7.08301L18.1588 6.78997ZM25.6625 9.89547C25.7098 9.72156 25.6925 9.53631 25.6141 9.37419C25.5357 9.21207 25.4014 9.0845 25.2362 9.01451L24.9491 9.69988L25.6625 9.89547ZM23.918 13.9031C24.0946 13.9254 24.2733 13.8827 24.4213 13.7831C24.5691 13.6834 24.6763 13.5334 24.7231 13.3606L24.01 13.165L23.918 13.9031ZM21.7068 13.625L21.7984 12.8872C21.6927 12.8739 21.5852 12.8838 21.4835 12.9162C21.3819 12.9486 21.2883 13.0027 21.2095 13.0749C21.1306 13.1471 21.0681 13.2356 21.0263 13.3343C20.9846 13.433 20.9647 13.5397 20.9678 13.6469L21.7068 13.625ZM9.16861 24.3051C9.15419 24.8012 9.46842 25.2571 9.95421 25.3974L10.1583 24.6826C10.0832 24.6598 10.0178 24.6126 9.97239 24.5483C9.927 24.484 9.90421 24.4063 9.90762 24.3274L9.16861 24.3051ZM9.48173 13.625L10.2207 13.6473C10.2239 13.54 10.2043 13.4333 10.1626 13.3345C10.1209 13.2356 10.0584 13.1471 9.97948 13.0749C9.90052 13.0027 9.80694 12.9485 9.7052 12.9161C9.60345 12.8837 9.49594 12.8738 9.39005 12.8872L9.48173 13.625ZM6.4654 13.3602C6.51225 13.5329 6.61948 13.6836 6.7674 13.7832C6.91531 13.8828 7.09397 13.925 7.27059 13.9028L7.17853 13.165L6.4654 13.3602ZM5.95263 9.01451C5.78745 9.0845 5.65317 9.21207 5.57476 9.37419C5.49636 9.53631 5.47879 9.72156 5.526 9.89547L6.23951 9.69988L5.95263 9.01451ZM25.7609 22.1271C25.7609 24.5919 23.7745 26.5896 21.3245 26.5896V27.3333C24.183 27.3333 26.5003 25.0024 26.5003 22.1271H25.7609ZM16.8882 22.1271C16.8882 19.6627 18.8745 17.6646 21.3245 17.6646V16.9209C18.4661 16.9209 16.1488 19.2518 16.1488 22.1271H16.8882ZM21.3245 17.6646C21.3615 17.6646 21.3985 17.665 21.4354 17.6661L21.4535 16.9224C21.4106 16.9213 21.3675 16.9208 21.3245 16.9209V17.6646ZM21.4354 17.6661C23.8344 17.7249 25.7609 19.6995 25.7609 22.1271H26.5003C26.5003 19.2953 24.2526 16.9915 21.4535 16.9224L21.4354 17.6661ZM20.9678 13.6469L21.075 17.3054L21.814 17.2831L21.7068 13.625L20.9678 13.6469ZM21.3245 26.5896C20.1811 26.5896 19.1392 26.1545 18.3522 25.4401L17.8568 25.9919C18.8069 26.8569 20.0431 27.335 21.3245 27.3333V26.5896ZM18.3522 25.4401C17.8907 25.0222 17.5218 24.5112 17.2696 23.9403C17.0174 23.3696 16.8874 22.7517 16.8882 22.1271H16.1488C16.1488 23.6607 16.8083 25.0396 17.8568 25.9919L18.3522 25.4401ZM18.0634 25.3464C17.3137 25.4308 16.5514 25.4739 15.7791 25.4739V26.2177C16.5792 26.2177 17.3688 26.1731 18.1455 26.0857L18.0634 25.3464ZM21.6942 23.6146H23.173V22.8708H21.6942V23.6146ZM20.9549 20.6397H19.476V21.3833H20.9549V20.6397ZM22.6318 23.442C22.4601 23.6147 22.2563 23.7518 22.032 23.8452C21.8077 23.9387 21.5674 23.9868 21.3245 23.9868C21.0817 23.9868 20.8414 23.9387 20.617 23.8452C20.3928 23.7518 20.189 23.6147 20.0173 23.442L19.4946 23.9679C19.7348 24.2097 20.0202 24.4014 20.3341 24.5322C20.6482 24.6631 20.9847 24.7304 21.3245 24.7304C21.6644 24.7304 22.0009 24.6631 22.315 24.5322C22.6289 24.4014 22.9142 24.2097 23.1545 23.9679L22.6318 23.442ZM20.0173 20.8126C20.189 20.6398 20.3928 20.5028 20.617 20.4094C20.8414 20.3159 21.0817 20.2678 21.3245 20.2678C21.5674 20.2678 21.8077 20.3159 22.032 20.4094C22.2563 20.5028 22.4601 20.6395 22.6318 20.8122L23.1545 20.2863C22.9142 20.0446 22.6289 19.8529 22.315 19.722C22.0009 19.5911 21.6644 19.5238 21.3245 19.5238C20.9847 19.5238 20.6482 19.5911 20.3341 19.722C20.0202 19.8529 19.7348 20.0442 19.4946 20.286L20.0173 20.8126ZM22.6318 20.8122C22.9035 21.0846 23.0837 21.436 23.1472 21.8166L23.8766 21.6932C23.7877 21.1598 23.5352 20.6683 23.1545 20.2863L22.6318 20.8122ZM20.0173 23.442C19.7455 23.1696 19.5654 22.8175 19.5019 22.4369L18.7725 22.5604C18.8613 23.0938 19.1139 23.5859 19.4946 23.9679L20.0173 23.442ZM22.8651 23.1554C22.7985 23.2565 22.7209 23.3528 22.6318 23.442L23.1545 23.9679C23.2763 23.8455 23.3856 23.7112 23.481 23.567L22.8651 23.1554ZM22.8033 23.2427V23.3613H23.5427V23.2427H22.8033ZM22.8033 23.3613V24.7302H23.5427V23.3613H22.8033ZM19.784 21.0989C19.8505 20.9981 19.9279 20.9018 20.0173 20.8126L19.4946 20.286C19.3707 20.4106 19.262 20.5451 19.1681 20.6873L19.784 21.0989ZM19.8458 21.0114V20.8929H19.1063V21.0114H19.8458ZM19.8458 20.8929V19.524H19.1063V20.8929H19.8458Z" fill="black"/>
</g>
</g>
</g>
<defs>
<clipPath id="clip0_187_24136">
<rect width="32" height="32" fill="white" transform="translate(0.332031)"/>
</clipPath>
<clipPath id="clip1_187_24136">
<rect width="21" height="21" fill="white" transform="translate(5.5 6.33331)"/>
</clipPath>
<clipPath id="clip2_187_24136">
<rect width="21" height="21" fill="white" transform="translate(5.5 6.33331)"/>
</clipPath>
</defs>
</svg>
