<svg width="32" height="32" viewBox="0 0 32 32" fill="none" xmlns="http://www.w3.org/2000/svg">
<mask id="mask0_936_8366" style="mask-type:alpha" maskUnits="userSpaceOnUse" x="0" y="0" width="32" height="32">
<path d="M25.669 19.2093C24.549 20.3279 23.1564 21.1348 21.6289 21.5501C20.1014 21.9654 18.4919 21.9748 16.9597 21.5773C16.5073 21.4492 16.0293 21.4417 15.5732 21.5556C15.117 21.6695 14.6987 21.9009 14.3597 22.2266L8.653 27.9519C8.53222 28.074 8.38843 28.171 8.22994 28.2371C8.07145 28.3033 7.90141 28.3374 7.72966 28.3374C7.55792 28.3374 7.38788 28.3033 7.22939 28.2371C7.0709 28.171 6.9271 28.074 6.80633 27.9519L4.05033 25.1933C3.92854 25.0723 3.83189 24.9285 3.76593 24.77C3.69997 24.6115 3.66602 24.4416 3.66602 24.2699C3.66602 24.0983 3.69997 23.9283 3.76593 23.7699C3.83189 23.6114 3.92854 23.4676 4.05033 23.3466L9.757 17.6346C10.0916 17.301 10.3289 16.8826 10.4436 16.4243C10.5582 15.966 10.5458 15.4851 10.4077 15.0333C10.0059 13.4622 10.0303 11.8123 10.4785 10.2538C10.9266 8.69527 11.7821 7.28441 12.957 6.1666C14.132 5.04953 15.5842 4.2669 17.1634 3.89978C18.7425 3.53266 20.3911 3.5944 21.9383 4.0786L18.0383 7.98127C17.0383 8.98394 16.5557 11.1039 17.5837 12.1186L19.8703 14.4213C20.8837 15.4359 23.0037 14.9679 24.017 13.9533L27.917 10.0506C28.4124 11.6371 28.4649 13.3289 28.0687 14.9431C27.6725 16.5572 26.8427 18.0324 25.669 19.2093Z" stroke="black" stroke-width="1.5" stroke-linecap="round" stroke-linejoin="round"/>
</mask>
<g mask="url(#mask0_936_8366)">
<rect width="32" height="32" fill="black"/>
</g>
</svg>
