<svg width="32" height="32" viewBox="0 0 32 32" fill="none" xmlns="http://www.w3.org/2000/svg">
<g clip-path="url(#clip0_187_24118)">
<path d="M6.70968 19.6124H6.32258V19.9995H6.70968V19.6124ZM19.0968 9.16084C18.9941 9.16084 18.8956 9.20162 18.8231 9.27422C18.7505 9.34681 18.7097 9.44527 18.7097 9.54793C18.7097 9.6506 18.7505 9.74906 18.8231 9.82165C18.8956 9.89425 18.9941 9.93503 19.0968 9.93503V9.16084ZM26.8387 21.1608V21.5479H27.2258V21.1608H26.8387ZM24.9032 21.1608V20.7737H24.5161V21.1608H24.9032ZM26.8387 17.6769C26.9414 17.6769 27.0398 17.6361 27.1124 17.5635C27.185 17.491 27.2258 17.3925 27.2258 17.2898C27.2258 17.1872 27.185 17.0887 27.1124 17.0161C27.0398 16.9435 26.9414 16.9027 26.8387 16.9027V17.6769ZM26.8387 19.9995C26.9414 19.9995 27.0398 19.9587 27.1124 19.8861C27.185 19.8135 27.2258 19.7151 27.2258 19.6124C27.2258 19.5097 27.185 19.4113 27.1124 19.3387C27.0398 19.2661 26.9414 19.2253 26.8387 19.2253V19.9995ZM4.3871 9.54793C4.28443 9.54793 4.18597 9.58872 4.11338 9.66131C4.04078 9.73391 4 9.83237 4 9.93503C4 10.0377 4.04078 10.1362 4.11338 10.2088C4.18597 10.2813 4.28443 10.3221 4.3871 10.3221V9.54793ZM9.03226 10.3221C9.13492 10.3221 9.23338 10.2813 9.30598 10.2088C9.37857 10.1362 9.41935 10.0377 9.41935 9.93503C9.41935 9.83237 9.37857 9.73391 9.30598 9.66131C9.23338 9.58872 9.13492 9.54793 9.03226 9.54793V10.3221ZM11.3548 9.54793C11.2522 9.54793 11.1537 9.58872 11.0811 9.66131C11.0085 9.73391 10.9677 9.83237 10.9677 9.93503C10.9677 10.0377 11.0085 10.1362 11.0811 10.2088C11.1537 10.2813 11.2522 10.3221 11.3548 10.3221V9.54793ZM12.9032 10.3221C13.0059 10.3221 13.1044 10.2813 13.1769 10.2088C13.2495 10.1362 13.2903 10.0377 13.2903 9.93503C13.2903 9.83237 13.2495 9.73391 13.1769 9.66131C13.1044 9.58872 13.0059 9.54793 12.9032 9.54793V10.3221ZM8.64516 11.0963C8.5425 11.0963 8.44404 11.1371 8.37144 11.2097C8.29885 11.2823 8.25806 11.3807 8.25806 11.4834C8.25806 11.5861 8.29885 11.6845 8.37144 11.7571C8.44404 11.8297 8.5425 11.8705 8.64516 11.8705V11.0963ZM17.1613 11.8705C17.264 11.8705 17.3624 11.8297 17.435 11.7571C17.5076 11.6845 17.5484 11.5861 17.5484 11.4834C17.5484 11.3807 17.5076 11.2823 17.435 11.2097C17.3624 11.1371 17.264 11.0963 17.1613 11.0963V11.8705ZM5.93548 13.4189C5.83282 13.4189 5.73436 13.4597 5.66177 13.5323C5.58917 13.6049 5.54839 13.7033 5.54839 13.806C5.54839 13.9087 5.58917 14.0071 5.66177 14.0797C5.73436 14.1523 5.83282 14.1931 5.93548 14.1931V13.4189ZM14.4516 14.1931C14.5543 14.1931 14.6527 14.1523 14.7253 14.0797C14.7979 14.0071 14.8387 13.9087 14.8387 13.806C14.8387 13.7033 14.7979 13.6049 14.7253 13.5323C14.6527 13.4597 14.5543 13.4189 14.4516 13.4189V14.1931ZM8.25806 7.61245H17.5484V6.83826H8.25806V7.61245ZM18.7097 8.77374V19.6124H19.4839V8.77374H18.7097ZM19.0968 19.2253H6.70968V19.9995H19.0968V19.2253ZM7.09677 19.6124V8.77374H6.32258V19.6124H7.09677ZM17.5484 7.61245C17.8564 7.61245 18.1518 7.7348 18.3695 7.95258C18.5873 8.17037 18.7097 8.46575 18.7097 8.77374H19.4839C19.4839 8.51957 19.4338 8.26789 19.3365 8.03306C19.2393 7.79824 19.0967 7.58487 18.917 7.40515C18.7373 7.22542 18.5239 7.08285 18.2891 6.98559C18.0542 6.88832 17.8026 6.83826 17.5484 6.83826V7.61245ZM8.25806 6.83826C7.74474 6.83826 7.25244 7.04217 6.88947 7.40515C6.5265 7.76812 6.32258 8.26042 6.32258 8.77374H7.09677C7.09677 8.46575 7.21912 8.17037 7.43691 7.95258C7.65469 7.7348 7.95007 7.61245 8.25806 7.61245V6.83826ZM19.0968 9.93503H24.1468V9.16084H19.0968V9.93503ZM25.2566 10.7549L26.332 14.2488L27.0717 14.0212L25.9968 10.5273L25.2566 10.7549ZM26.4516 15.0459V21.1608H27.2258V15.0459H26.4516ZM22.6472 19.2253H19.0968V19.9995H22.6472V19.2253ZM26.8387 20.7737H24.8366V21.5479H26.8387V20.7737ZM24.563 20.6603L23.4683 19.5656L22.9209 20.1129L24.0156 21.2076L24.563 20.6603ZM22.6472 19.9995C22.6981 19.9995 22.7481 20.0095 22.7952 20.0289C22.8422 20.0484 22.8849 20.0769 22.9209 20.1129L23.4683 19.5656C23.2505 19.3478 22.9552 19.2254 22.6472 19.2253V19.9995ZM26.332 14.2488C26.4114 14.5071 26.4517 14.7757 26.4516 15.0459H27.2258C27.2258 14.6986 27.1739 14.353 27.0717 14.0212L26.332 14.2488ZM24.8366 20.7737C24.734 20.7737 24.6355 20.7329 24.563 20.6603L24.0156 21.2076C24.2333 21.4254 24.5287 21.5478 24.8366 21.5479V20.7737ZM24.1468 9.93503C24.3952 9.93507 24.637 10.0147 24.8367 10.1623C25.0365 10.3098 25.1836 10.5175 25.2566 10.7549L25.9968 10.5273C25.8751 10.1316 25.6297 9.78532 25.2966 9.53938C24.9636 9.29343 24.5608 9.16076 24.1468 9.16084V9.93503ZM23.3548 23.0963C23.3548 23.5069 23.1917 23.9008 22.9013 24.1912C22.6109 24.4815 22.2171 24.6447 21.8065 24.6447V25.4189C22.4224 25.4189 23.0132 25.1742 23.4488 24.7386C23.8843 24.303 24.129 23.7123 24.129 23.0963H23.3548ZM21.8065 24.6447C21.3958 24.6447 21.002 24.4815 20.7116 24.1912C20.4212 23.9008 20.2581 23.5069 20.2581 23.0963H19.4839C19.4839 23.7123 19.7286 24.303 20.1641 24.7386C20.5997 25.1742 21.1905 25.4189 21.8065 25.4189V24.6447ZM20.2581 23.0963C20.2581 22.6856 20.4212 22.2918 20.7116 22.0014C21.002 21.711 21.3958 21.5479 21.8065 21.5479V20.7737C21.1905 20.7737 20.5997 21.0184 20.1641 21.454C19.7286 21.8895 19.4839 22.4803 19.4839 23.0963H20.2581ZM21.8065 21.5479C22.2171 21.5479 22.6109 21.711 22.9013 22.0014C23.1917 22.2918 23.3548 22.6856 23.3548 23.0963H24.129C24.129 22.4803 23.8843 21.8895 23.4488 21.454C23.0132 21.0184 22.4224 20.7737 21.8065 20.7737V21.5479ZM12.9032 23.0963C12.9032 23.5069 12.7401 23.9008 12.4497 24.1912C12.1593 24.4815 11.7655 24.6447 11.3548 24.6447V25.4189C11.9708 25.4189 12.5616 25.1742 12.9972 24.7386C13.4327 24.303 13.6774 23.7123 13.6774 23.0963H12.9032ZM11.3548 24.6447C10.9442 24.6447 10.5503 24.4815 10.26 24.1912C9.96958 23.9008 9.80645 23.5069 9.80645 23.0963H9.03226C9.03226 23.7123 9.27696 24.303 9.71253 24.7386C10.1481 25.1742 10.7388 25.4189 11.3548 25.4189V24.6447ZM9.80645 23.0963C9.80645 22.6856 9.96958 22.2918 10.26 22.0014C10.5503 21.711 10.9442 21.5479 11.3548 21.5479V20.7737C10.7388 20.7737 10.1481 21.0184 9.71253 21.454C9.27696 21.8895 9.03226 22.4803 9.03226 23.0963H9.80645ZM11.3548 21.5479C11.7655 21.5479 12.1593 21.711 12.4497 22.0014C12.7401 22.2918 12.9032 22.6856 12.9032 23.0963H13.6774C13.6774 22.4803 13.4327 21.8895 12.9972 21.454C12.5616 21.0184 11.9708 20.7737 11.3548 20.7737V21.5479ZM13.2903 23.4834H19.871V22.7092H13.2903V23.4834ZM8.57858 23.4834H9.41935V22.7092H8.57858V23.4834ZM8.3049 22.5958L6.98335 21.2742L6.436 21.8216L7.75755 23.1431L8.3049 22.5958ZM8.57858 22.7092C8.47592 22.7092 8.37748 22.6684 8.3049 22.5958L7.75755 23.1431C7.97528 23.3609 8.27061 23.4833 8.57858 23.4834V22.7092ZM23.7419 23.4834H25.2903V22.7092H23.7419V23.4834ZM24.9032 21.5479H27.2258V20.7737H24.9032V21.5479ZM27.2258 21.5479V22.7092H28V21.5479H27.2258ZM27.2258 22.7092H25.2903V23.4834H27.2258V22.7092ZM24.5161 21.1608V22.7092H25.2903V21.1608H24.5161ZM25.2903 22.7092H24.5161C24.5161 22.9145 24.5977 23.1114 24.7429 23.2566C24.8881 23.4018 25.085 23.4834 25.2903 23.4834V22.7092ZM27.2258 22.7092V23.4834C27.4311 23.4834 27.6281 23.4018 27.7732 23.2566C27.9184 23.1114 28 22.9145 28 22.7092H27.2258ZM27.2258 21.5479H28C28 21.3426 27.9184 21.1456 27.7732 21.0005C27.6281 20.8553 27.4311 20.7737 27.2258 20.7737V21.5479ZM25.6774 17.6769H26.8387V16.9027H25.6774V17.6769ZM26.8387 19.2253H25.6774V19.9995H26.8387V19.2253ZM24.9032 17.6769V19.2253H25.6774V17.6769H24.9032ZM25.6774 19.2253H24.9032C24.9032 19.4306 24.9848 19.6276 25.13 19.7728C25.2752 19.9179 25.4721 19.9995 25.6774 19.9995V19.2253ZM25.6774 16.9027C25.4721 16.9027 25.2752 16.9843 25.13 17.1295C24.9848 17.2747 24.9032 17.4716 24.9032 17.6769H25.6774V16.9027ZM5.54839 19.9995H7.48387V19.2253H5.54839V19.9995ZM7.48387 19.9995V21.1608H8.25806V19.9995H7.48387ZM7.48387 21.1608H5.54839V21.935H7.48387V21.1608ZM4.77419 19.9995V21.1608H5.54839V19.9995H4.77419ZM5.54839 21.1608H4.77419C4.77419 21.3661 4.85576 21.563 5.00095 21.7082C5.14614 21.8534 5.34306 21.935 5.54839 21.935V21.1608ZM7.48387 21.1608V21.935C7.6892 21.935 7.88612 21.8534 8.03131 21.7082C8.1765 21.563 8.25806 21.3661 8.25806 21.1608H7.48387ZM7.48387 19.9995H8.25806C8.25806 19.7942 8.1765 19.5973 8.03131 19.4521C7.88612 19.3069 7.6892 19.2253 7.48387 19.2253V19.9995ZM5.54839 19.2253C5.34306 19.2253 5.14614 19.3069 5.00095 19.4521C4.85576 19.5973 4.77419 19.7942 4.77419 19.9995H5.54839V19.2253ZM21.8065 23.0963V23.8705C22.0118 23.8705 22.2087 23.7889 22.3539 23.6437C22.4991 23.4985 22.5806 23.3016 22.5806 23.0963H21.8065ZM21.8065 23.0963H21.0323C21.0323 23.3016 21.1138 23.4985 21.259 23.6437C21.4042 23.7889 21.6011 23.8705 21.8065 23.8705V23.0963ZM21.8065 23.0963V22.3221C21.6011 22.3221 21.4042 22.4037 21.259 22.5488C21.1138 22.694 21.0323 22.891 21.0323 23.0963H21.8065ZM21.8065 23.0963H22.5806C22.5806 22.891 22.4991 22.694 22.3539 22.5488C22.2087 22.4037 22.0118 22.3221 21.8065 22.3221V23.0963ZM11.3548 23.0963V23.8705C11.5602 23.8705 11.7571 23.7889 11.9023 23.6437C12.0475 23.4985 12.129 23.3016 12.129 23.0963H11.3548ZM11.3548 23.0963H10.5806C10.5806 23.3016 10.6622 23.4985 10.8074 23.6437C10.9526 23.7889 11.1495 23.8705 11.3548 23.8705V23.0963ZM11.3548 23.0963V22.3221C11.1495 22.3221 10.9526 22.4037 10.8074 22.5488C10.6622 22.694 10.5806 22.891 10.5806 23.0963H11.3548ZM11.3548 23.0963H12.129C12.129 22.891 12.0475 22.694 11.9023 22.5488C11.7571 22.4037 11.5602 22.3221 11.3548 22.3221V23.0963ZM21.0323 13.2494V11.4834H20.2581V13.2494H21.0323ZM23.9413 10.7092H21.0323V11.4834H23.9413V10.7092ZM23.9413 11.4834L24.909 14.5802L25.648 14.3491L24.6803 11.2523L23.9413 11.4834ZM22.4738 14.5802L21.0323 13.2494L20.507 13.8184L21.9489 15.1492L22.4738 14.5802ZM22.4742 15.3544H24.909V14.5802H22.4738L22.4742 15.3544ZM21.9489 15.1492C22.0919 15.2811 22.2797 15.3544 22.4742 15.3544L22.4738 14.5802L21.9489 15.1492ZM24.909 14.5802V15.3544C25.0305 15.3544 25.1502 15.3258 25.2586 15.271C25.367 15.2162 25.461 15.1366 25.5329 15.0387C25.6048 14.9409 25.6527 14.8275 25.6727 14.7077C25.6927 14.5878 25.6843 14.465 25.648 14.3491L24.909 14.5802ZM23.9413 11.4834L24.6803 11.2523C24.6311 11.0947 24.5328 10.9574 24.3998 10.8596C24.2668 10.7619 24.1064 10.7091 23.9413 10.7092V11.4834ZM21.0323 11.4834V10.7092C20.8269 10.7092 20.63 10.7908 20.4848 10.936C20.3396 11.0812 20.2581 11.2781 20.2581 11.4834H21.0323ZM20.2581 13.2494C20.258 13.3563 20.2801 13.462 20.323 13.5599C20.3658 13.6579 20.4284 13.7459 20.507 13.8184L21.0323 13.2494H20.2581ZM4.3871 10.3221H9.03226V9.54793H4.3871V10.3221ZM11.3548 10.3221H12.9032V9.54793H11.3548V10.3221ZM8.64516 11.8705H17.1613V11.0963H8.64516V11.8705ZM5.93548 14.1931H14.4516V13.4189H5.93548V14.1931Z" fill="black"/>
</g>
<defs>
<clipPath id="clip0_187_24118">
<rect width="32" height="32" fill="white"/>
</clipPath>
</defs>
</svg>
