<svg width="33" height="32" viewBox="0 0 33 32" fill="none" xmlns="http://www.w3.org/2000/svg">
<path d="M19.6804 29.3642L19.4001 29.708L19.6809 29.3646L19.6804 29.3642ZM17.2099 27.4272L17.4902 27.083L17.2095 27.4268L17.2099 27.4272ZM16.087 27.4272L15.8067 27.083L16.0874 27.4268L16.087 27.4272ZM11.9136 5.41192L11.8777 4.97258L11.9136 5.41148V5.41192ZM7.26232 11.144L6.92049 10.8583L7.26187 11.1444L7.26232 11.144ZM8.10903 9.13969L7.66164 9.10491L8.10903 9.14013V9.13969ZM6.95597 16.0643L7.2978 15.7791L6.95642 16.0648L6.95597 16.0643ZM6.95597 11.4962L7.2978 11.7814L6.95642 11.4962H6.95597ZM7.26232 16.4169L6.92049 16.7022L7.26187 16.4169H7.26232ZM19.3386 22.9793L19.6301 23.3143L19.3381 22.9797L19.3386 22.9793ZM26.035 11.144L26.3764 10.8583L26.035 11.1444V11.144ZM21.1412 22.1763L21.0747 21.7409L21.1407 22.1768L21.1412 22.1763ZM12.1575 22.1763L12.2231 21.7409L12.1571 22.1768L12.1575 22.1763ZM14.7205 13.909C14.6363 13.8265 14.522 13.7801 14.4028 13.7802C14.2837 13.7802 14.1694 13.8266 14.0852 13.9092C14.001 13.9918 13.9537 14.1038 13.9537 14.2206C13.9537 14.3374 14.0011 14.4494 14.0854 14.5319L14.7205 13.9095V13.909ZM16.1993 15.982L15.8817 16.2932C15.9287 16.3394 15.9855 16.3747 16.0481 16.3967C16.1107 16.4187 16.1775 16.4267 16.2437 16.4203C16.3099 16.4139 16.3738 16.3932 16.4308 16.3597C16.4878 16.3261 16.5366 16.2806 16.5734 16.2263L16.1993 15.9811V15.982ZM19.2681 12.2639C19.302 12.2158 19.3258 12.1616 19.3382 12.1044C19.3505 12.0472 19.3511 11.9882 19.3399 11.9308C19.3287 11.8734 19.306 11.8187 19.273 11.77C19.24 11.7213 19.1975 11.6795 19.1478 11.6471C19.0982 11.6147 19.0425 11.5923 18.9839 11.5812C18.9253 11.5701 18.8651 11.5706 18.8067 11.5825C18.7483 11.5945 18.693 11.6177 18.6438 11.6509C18.5947 11.6841 18.5528 11.7265 18.5206 11.7757L19.2681 12.2639ZM20.4665 20.2618C20.5688 20.203 20.6433 20.1069 20.6736 19.9946C20.7039 19.8822 20.6876 19.7626 20.6283 19.6619C20.569 19.5612 20.4715 19.4876 20.357 19.4572C20.2425 19.4267 20.1204 19.4419 20.0173 19.4993L20.4665 20.2618ZM23.1566 15.4894C23.1414 15.5452 23.1375 15.6035 23.1452 15.6608C23.1528 15.7181 23.172 15.7734 23.2015 15.8235C23.231 15.8736 23.2702 15.9175 23.317 15.9527C23.3638 15.9879 23.4172 16.0137 23.4742 16.0287C23.5312 16.0436 23.5906 16.0475 23.6491 16.0399C23.7076 16.0324 23.764 16.0136 23.8151 15.9847C23.8662 15.9558 23.911 15.9173 23.9469 15.8715C23.9828 15.8256 24.0092 15.7733 24.0245 15.7174L23.1566 15.4894ZM23.2627 17.5223C23.293 17.4722 23.3129 17.4166 23.3212 17.3589C23.3295 17.3012 23.326 17.2424 23.3109 17.186C23.2959 17.1296 23.2695 17.0767 23.2334 17.0304C23.1973 16.984 23.1521 16.9452 23.1006 16.9161C23.049 16.887 22.9921 16.8682 22.9331 16.8609C22.8741 16.8535 22.8141 16.8577 22.7568 16.8733C22.6995 16.8888 22.6458 16.9153 22.599 16.9513C22.5522 16.9873 22.5132 17.0321 22.4842 17.083L23.2627 17.5223ZM21.4143 18.4507C21.3324 18.5337 21.287 18.6449 21.288 18.7603C21.2889 18.8757 21.3361 18.9862 21.4193 19.0679C21.5025 19.1495 21.6151 19.1959 21.7329 19.197C21.8507 19.1981 21.9642 19.1538 22.049 19.0737L21.4143 18.4507ZM19.9612 29.0204L17.4907 27.0834L16.9292 27.7706L19.4001 29.708L19.9612 29.0204ZM15.8067 27.083L13.3357 29.0204L13.8967 29.708L16.3677 27.771L15.8067 27.083ZM17.4907 27.0834C17.2517 26.8961 16.9544 26.7941 16.6484 26.7941C16.3425 26.7941 16.0456 26.8957 15.8067 27.083L16.3681 27.7706C16.4478 27.7082 16.5467 27.6742 16.6487 27.6742C16.7506 27.6742 16.8495 27.7082 16.9292 27.7706L17.4907 27.0834ZM13.3357 29.0204C13.2697 29.0721 13.1896 29.1044 13.1056 29.1138C13.0217 29.1231 12.9367 29.1091 12.8605 29.0732C12.7843 29.0373 12.72 28.9811 12.6749 28.9111C12.6299 28.841 12.6059 28.7598 12.6058 28.677H11.7074C11.7074 29.7842 13.0145 30.4 13.8967 29.708L13.3357 29.0204ZM19.4001 29.708C20.2823 30.4 21.5894 29.7842 21.5894 28.677H20.6911C20.691 28.7599 20.6671 28.8411 20.622 28.9113C20.5769 28.9815 20.5125 29.0377 20.4363 29.0736C20.36 29.1095 20.2749 29.1235 20.1909 29.1141C20.1068 29.1047 20.0272 29.0722 19.9612 29.0204L19.4001 29.708ZM18.6877 4.61645L19.0475 4.91667L19.6297 4.24622L19.2703 3.94643L18.6877 4.61645ZM21.3478 5.85038L21.8181 5.88736L21.89 5.00956L21.4188 4.97258L21.3478 5.85038ZM24.7023 8.714L24.74 9.1749L25.6357 9.10491L25.598 8.64356L24.7023 8.714ZM25.6927 11.4297L25.9991 11.7819L26.6827 11.2105L26.3764 10.8583L25.6927 11.4297ZM25.9991 15.7791L25.6927 16.1312L26.3768 16.7022L26.6827 16.35L25.9991 15.7791ZM24.74 18.3856L24.7023 18.8469L25.598 18.9174L25.6357 18.456L24.74 18.3856ZM21.8181 21.6736L21.3473 21.7106L21.4192 22.5879L21.89 22.5514L21.8181 21.6736ZM19.0471 22.6443L18.6877 22.9445L19.2708 23.6145L19.6301 23.3143L19.0471 22.6443ZM14.6091 22.9445L14.2498 22.6447L13.6672 23.3143L14.0266 23.6145L14.6091 22.9445ZM11.9495 21.7106L11.4788 21.6736L11.4069 22.5514L11.8777 22.5879L11.9495 21.7106ZM8.59459 18.8469L8.55686 18.386L7.66164 18.456L7.69892 18.9169L8.59459 18.8469ZM7.60414 16.1312L7.2978 15.7791L6.61414 16.35L6.92049 16.7022L7.60414 16.1312ZM7.2978 11.7819L7.60414 11.4297L6.92049 10.8583L6.61414 11.2105L7.2978 11.7814V11.7819ZM8.55686 9.1749L8.59459 8.714L7.69892 8.64356L7.66164 9.10491L8.55686 9.17535V9.1749ZM11.4788 5.88736L11.9491 5.85038L11.8777 4.97258L11.4074 5.00956L11.4788 5.88736ZM14.2498 4.91667L14.6091 4.61645L14.0266 3.94643L13.6672 4.24666L14.2498 4.91667ZM11.9491 5.85038C12.7971 5.78415 13.6022 5.45741 14.2498 4.91667L13.6672 4.24666C13.1635 4.6673 12.5373 4.92105 11.8777 4.97258L11.9491 5.85038ZM8.59459 8.714C8.65404 7.98382 8.97694 7.29828 9.5054 6.78028C10.0339 6.26229 10.7338 5.94573 11.4788 5.88736L11.4074 5.00956C10.4494 5.08443 9.54992 5.49133 8.87033 6.15729C8.19073 6.82324 7.77543 7.70469 7.69892 8.64356L8.59459 8.714ZM7.60414 11.4297C8.15589 10.7951 8.48928 10.006 8.55686 9.1749L7.66164 9.10491C7.60896 9.75124 7.34961 10.3648 6.92049 10.8583L7.60414 11.4297ZM7.2978 15.7791C6.81305 15.2215 6.5468 14.513 6.5468 13.7805C6.5468 13.048 6.81305 12.3394 7.2978 11.7819L6.61414 11.2105C5.99081 11.9273 5.64844 12.8384 5.64844 13.7802C5.64844 14.7221 5.99081 15.6332 6.61414 16.35L7.2978 15.7791ZM8.55686 18.386C8.48928 17.5549 8.15589 16.7659 7.60414 16.1312L6.92049 16.7022C7.34969 17.1958 7.60905 17.8095 7.66164 18.456L8.55686 18.386ZM11.4788 21.6736C10.7337 21.6153 10.0342 21.2989 9.5057 20.781C8.97716 20.263 8.65415 19.5775 8.59459 18.8474L7.69892 18.9169C7.77533 19.8559 8.19058 20.7374 8.87019 21.4035C9.5498 22.0695 10.4493 22.4765 11.4074 22.5514L11.4788 21.6736ZM18.6877 22.9445C18.1188 23.4197 17.3962 23.6807 16.6487 23.6807C15.9011 23.6807 15.1781 23.4197 14.6091 22.9445L14.0266 23.6145C14.758 24.2254 15.6876 24.5609 16.6487 24.5609C17.6097 24.5609 18.5393 24.2254 19.2708 23.6145L18.6877 22.9445ZM24.7023 18.8469C24.6428 19.5773 24.3202 20.2629 23.7916 20.7809C23.2629 21.2989 22.5633 21.6154 21.8181 21.6736L21.89 22.5514C22.8479 22.4764 23.7473 22.0694 24.4269 21.4033C25.1064 20.7373 25.5216 19.8563 25.598 18.9174L24.7023 18.8469ZM25.6927 16.1312C25.141 16.7659 24.8076 17.5545 24.74 18.3856L25.6357 18.456C25.6883 17.8095 25.9476 17.1958 26.3768 16.7022L25.6927 16.1312ZM25.9991 11.7819C26.4838 12.3394 26.7501 13.048 26.7501 13.7805C26.7501 14.513 26.4838 15.2215 25.9991 15.7791L26.6827 16.35C27.3061 15.6332 27.6484 14.7221 27.6484 13.7802C27.6484 12.8384 27.3061 11.9273 26.6827 11.2105L25.9991 11.7814V11.7819ZM24.74 9.1749C24.8076 10.006 25.141 10.7951 25.6927 11.4297L26.3764 10.8583C25.9473 10.3648 25.6884 9.75124 25.6357 9.10491L24.74 9.17535V9.1749ZM21.8181 5.88736C22.5631 5.94561 23.2626 6.26207 23.7912 6.77998C24.3197 7.29789 24.6427 7.98383 24.7023 8.714L25.598 8.64356C25.5215 7.70476 25.1062 6.82337 24.4267 6.15742C23.7472 5.49147 22.8479 5.08453 21.89 5.00956L21.8181 5.88736ZM19.0475 4.91667C19.6951 5.45741 20.4997 5.78415 21.3478 5.85038L21.4188 4.97258C20.7593 4.92096 20.1332 4.66678 19.6297 4.24622L19.0475 4.91667ZM19.2703 3.94643C18.5389 3.33554 17.6097 3 16.6487 3C15.6876 3 14.758 3.33554 14.0266 3.94643L14.6091 4.61645C15.178 4.14137 15.901 3.88043 16.6484 3.88043C17.3959 3.88043 18.1188 4.14137 18.6877 4.61645L19.2703 3.94643ZM21.3473 21.7106C21.2557 21.7176 21.165 21.7282 21.0738 21.7414L21.2063 22.6117C21.2768 22.6016 21.3478 22.5936 21.4192 22.5879L21.3473 21.7106ZM21.0738 21.7414C20.3253 21.8505 19.6231 22.1633 19.0471 22.6443L19.6301 23.3143C20.0782 22.94 20.624 22.6966 21.2063 22.6117L21.0747 21.7409L21.0738 21.7414ZM20.6911 22.1763V28.677H21.5894V22.1763H20.6911ZM14.2498 22.6447C13.6737 22.1635 12.9713 21.8501 12.2226 21.7409L12.0906 22.6117C12.6729 22.6966 13.2191 22.94 13.6672 23.3143L14.2498 22.6447ZM12.2226 21.7409C12.1318 21.7276 12.0406 21.7173 11.9491 21.7101L11.8777 22.5879C11.9495 22.5936 12.0201 22.6016 12.0906 22.6117L12.2226 21.7409ZM12.6058 28.677V22.1763H11.7074V28.677H12.6058ZM14.085 14.5319L15.8817 16.2932L16.5168 15.6703L14.7205 13.9095L14.085 14.5319ZM16.5734 16.2263L19.2681 12.2639L18.5206 11.7753L15.8255 15.7372L16.573 16.2259L16.5734 16.2263ZM20.0173 19.4985C16.7949 21.3218 12.6741 20.2398 10.8136 17.0817L10.0356 17.5219C12.144 21.1009 16.8142 22.3277 20.4665 20.2609L20.0173 19.4985ZM10.8136 17.0817C8.95304 13.9231 10.0571 9.88498 13.2796 8.06159L12.8304 7.2987C9.17853 9.36552 7.92666 13.9425 10.0356 17.5219L10.8136 17.0817ZM13.2796 8.06159C16.502 6.23777 20.6228 7.31983 22.4833 10.4784L23.2613 10.0386C21.1528 6.45964 16.4831 5.23231 12.8304 7.2987L13.2796 8.06159ZM22.4833 10.4784C22.9269 11.2289 23.2147 12.0579 23.3303 12.9178C23.4458 13.7777 23.3868 14.6519 23.1566 15.4894L24.0245 15.7174C24.2852 14.7683 24.352 13.7775 24.221 12.803C24.0901 11.8284 23.7639 10.8893 23.2613 10.0386L22.4833 10.4784ZM22.4842 17.083C22.1905 17.583 21.8307 18.0429 21.4143 18.4507L22.049 19.0732C22.5214 18.6106 22.9294 18.0895 23.2627 17.5223L22.4842 17.083Z" fill="black"/>
</svg>
