<svg width="32" height="33" viewBox="0 0 32 33" fill="none" xmlns="http://www.w3.org/2000/svg">
<g clip-path="url(#clip0_795_2442)">
<mask id="mask0_795_2442" style="mask-type:alpha" maskUnits="userSpaceOnUse" x="0" y="-1" width="33" height="33">
<path d="M26.0015 19.1521C24.8815 20.2708 23.4889 21.0776 21.9614 21.4929C20.4339 21.9083 18.8244 21.9176 17.2922 21.5201C16.8398 21.392 16.3618 21.3846 15.9057 21.4985C15.4496 21.6124 15.0312 21.8437 14.6922 22.1695L8.98552 27.8948C8.86474 28.0169 8.72095 28.1139 8.56246 28.18C8.40397 28.2462 8.23393 28.2802 8.06218 28.2802C7.89044 28.2802 7.7204 28.2462 7.56191 28.18C7.40342 28.1139 7.25962 28.0169 7.13885 27.8948L4.38285 25.1361C4.26106 25.0152 4.16441 24.8713 4.09845 24.7129C4.03249 24.5544 3.99854 24.3845 3.99854 24.2128C3.99854 24.0412 4.03249 23.8712 4.09845 23.7127C4.16441 23.5543 4.26106 23.4104 4.38285 23.2895L10.0895 17.5775C10.4241 17.2439 10.6614 16.8255 10.7761 16.3672C10.8907 15.9088 10.8783 15.4279 10.7402 14.9761C10.3384 13.405 10.3629 11.7552 10.811 10.1967C11.2591 8.63814 12.1146 7.22728 13.2895 6.10947C14.4645 4.9924 15.9168 4.20977 17.4959 3.84265C19.075 3.47553 20.7236 3.53727 22.2709 4.02147L18.3709 7.92414C17.3709 8.92681 16.8882 11.0468 17.9162 12.0615L20.2028 14.3641C21.2162 15.3788 23.3362 14.9108 24.3495 13.8961L28.2495 9.99347C28.7449 11.58 28.7974 13.2718 28.4012 14.8859C28.005 16.5001 27.1752 17.9753 26.0015 19.1521Z" stroke="black" stroke-width="1.5" stroke-linecap="round" stroke-linejoin="round"/>
</mask>
<g mask="url(#mask0_795_2442)">
<rect x="0.332031" y="-0.0576172" width="32" height="32" fill="white"/>
</g>
</g>
<defs>
<clipPath id="clip0_795_2442">
<rect width="32" height="32" fill="white" transform="translate(0 0.0576172)"/>
</clipPath>
</defs>
</svg>
