<svg width="32" height="33" viewBox="0 0 32 33" fill="none" xmlns="http://www.w3.org/2000/svg">
<path d="M17.9805 7.11523C19.4221 7.49486 20.7371 8.25032 21.7912 9.30446C22.8454 10.3586 23.6008 11.6736 23.9805 13.1152" stroke="white" stroke-linecap="round" stroke-linejoin="round"/>
<path d="M17.9805 11.1152C19.5292 11.5296 20.5661 12.5665 20.9805 14.1152" stroke="white" stroke-linecap="round" stroke-linejoin="round"/>
<path d="M18.8254 18.2027C18.9398 18.1306 19.0714 18.0866 19.2082 18.0748C19.3451 18.063 19.4829 18.0838 19.6091 18.1352L24.479 20.2023C24.6432 20.2688 24.7801 20.3838 24.8695 20.5301C24.9588 20.6765 24.9958 20.8464 24.9747 21.0143C24.8143 22.1501 24.2239 23.1921 23.3133 23.9464C22.4027 24.7008 21.2339 25.1161 20.0243 25.1152C16.2996 25.1152 12.7275 23.7135 10.0938 21.2184C7.46008 18.7233 5.98047 15.3392 5.98047 11.8106C5.97955 10.6646 6.41797 9.55736 7.21422 8.69469C8.01046 7.83203 9.11033 7.27269 10.3093 7.1207C10.4865 7.10075 10.6658 7.13572 10.8203 7.22037C10.9748 7.30502 11.0962 7.4348 11.1663 7.59028L13.3483 12.2078C13.4019 12.3264 13.4237 12.4557 13.4118 12.5842C13.4 12.7127 13.3547 12.8365 13.2801 12.9444L11.0734 15.4302C10.9951 15.5421 10.9488 15.6714 10.9391 15.8053C10.9293 15.9392 10.9564 16.0732 11.0176 16.1943C11.8716 17.8505 13.6787 19.542 15.4321 20.3432C15.5606 20.401 15.7027 20.426 15.8445 20.4159C15.9863 20.4058 16.1229 20.3608 16.2407 20.2855L18.8254 18.2027Z" stroke="white" stroke-linecap="round" stroke-linejoin="round"/>
</svg>
