<?xml version="1.0" encoding="utf-8"?>
<svg xmlns="http://www.w3.org/2000/svg" data-name="Layer 1" id="Layer_1" viewBox="0 0 778 186.747815">
  <defs>
    <style>
      .cls-1 {
        fill: #fff;
      }
    </style>
  </defs>
  <path class="cls-1" d="M12.680352,89.613703h100.729632c3.842531,0,7.026366-2.964251,9.771043-8.837858,2.717245-5.901054,2.278087-8.837858-1.591918-8.837858H48.306246c-18.828485,0-25.772514-15.891681-16.550398-35.845481C40.676047,16.797429,62.02963.027453,81.544284.027453h100.729674l-12.570583,27.227195h-100.729632c-3.870004,0-7.273377,2.936803-9.990622,8.83786-2.634908,5.68148-1.948739,8.618286,1.921265,8.618286h73.282864c19.048064,0,25.443124,16.111255,16.22105,36.065057-9.222116,19.953802-30.520793,36.065052-49.568857,36.065052H0l12.707867-27.2272h-.027515Z"/>
  <path class="cls-1" d="M202.804087,0h112.998383c19.295075,0,24.949103,17.703165,14.876185,39.468453-9.96319,21.545712-31.975469,39.248879-51.270543,39.248879h-68.863932l12.707867-27.227195h68.754122c3.870004,0,7.794872-4.089568,11.445339-12.021685,3.787667-8.179138,3.622994-12.241259-.247011-12.241259h-85.386857l-41.801459,89.613698h-27.721253L202.804087,0Z"/>
  <path class="cls-1" d="M363.312819,0h124.663176l-12.680394,27.227195h-97.326218l-29.093591,62.386509h97.710513l-12.707867,27.227189h-125.047471L363.312819,0ZM386.917057,44.710788h74.078801l-12.707867,27.227195h-74.078801l12.707867-27.227195Z"/>
  <path class="cls-1" d="M508.945366,0h124.663176l-12.680394,27.227195h-97.326218l-29.093591,62.386509h97.710513l-12.707867,27.227189h-125.047471L508.945366,0ZM532.52213,44.710788h74.078801l-12.707867,27.227195h-74.078801l12.707867-27.227195Z"/>
  <path class="cls-1" d="M633.334141,44.710788h27.419295l-20.941898,44.930368h72.102631c7.026366,0,12.131509-3.183825,15.17806-9.743601l20.008718-42.871852c3.046551-6.587226.713643-9.743603-6.340197-9.743603h-99.247525L654.193618.054905h99.137714c20.886951,0,30.520793,16.330827,20.969371,36.970798l-20.008718,42.871852c-9.743569,21.106561-33.869302,36.970801-54.975874,36.970801h-99.631736s33.649765-72.157557,33.649765-72.157567Z"/>
  <path class="cls-1" d="M134.516555,134.214702h59.586953l-5.708891,12.241256h-59.586911l5.708933-12.241256h-.000084ZM148.871204,154.305736h12.378519l-15.123154,32.414627h-12.378478l15.123154-32.414637-.000042.00001Z"/>
  <path class="cls-1" d="M205.301753,134.214702h50.886332c8.975063,0,11.253192,7.849777,6.724492,17.648273-4.583647,9.880832-14.052732,17.648273-23.027879,17.648273h-4.693374l7.438051,17.236567h-16.715072l-12.570583-29.477824h31.50892c2.250655,0,4.226826-1.838928,5.873649-5.407017,1.646823-3.568078,1.372338-5.407017-.878317-5.407017h-37.76678l-18.77358,40.264404h-12.460856l24.482554-52.505661h-.027557Z"/>
  <path class="cls-1" d="M282.701674,134.214702h12.460856l-24.482554,52.505661h-12.460856l24.482554-52.505661Z"/>
  <path class="cls-1" d="M309.187789,134.214702h50.776522c8.673189,0,11.198245,7.959567,6.697018,17.73061-4.473837,9.688706-14.38208,17.648273-23.027879,17.648273h-30.932478l5.708891-12.241256h30.905088c1.72916,0,3.485709-1.838928,5.160006-5.407017,1.701686-3.677867,1.619349-5.516796-.109811-5.516796h-38.370613l-18.77358,40.264415h-12.460856l24.482554-52.505661-.054863.027432Z"/>
  <path class="cls-1" d="M386.148551,134.214702h12.405909l-18.77358,40.264404h40.31931l-5.708891,12.241256h-52.725219l24.482554-52.505661h-.000084Z"/>
  <path class="cls-1" d="M448.260601,134.214702h56.018865l-5.708891,12.241256h-43.612955l-13.064689,28.023148h43.777629l-5.708891,12.241256h-56.183538l24.482554-52.505661h-.000084ZM458.855014,154.305736h33.292944l-5.708891,12.241256h-33.292944l5.708891-12.241256Z"/>
</svg>