<svg width="32" height="32" viewBox="0 0 32 32" fill="none" xmlns="http://www.w3.org/2000/svg">
<mask id="mask0_936_5050" style="mask-type:alpha" maskUnits="userSpaceOnUse" x="0" y="0" width="32" height="32">
<path d="M24.6797 15.8506C27.1166 15.8457 29.1149 17.7537 29.2432 20.1396L29.249 20.3721C29.2553 22.8935 27.2344 24.9254 24.6914 24.9385L24.457 24.9336C22.127 24.8275 20.2513 22.9694 20.124 20.6426L20.1172 20.4092V20.4082C20.1074 17.9766 22.0178 15.9842 24.4434 15.8574L24.6797 15.8506Z" stroke="black" stroke-width="1.5"/>
<path d="M7.32031 15.8506C9.76872 15.8526 11.7547 17.7592 11.8779 20.1592L11.8838 20.3936C11.8847 22.9016 9.85153 24.9343 7.32227 24.9385L7.08691 24.9326C4.6674 24.8144 2.74979 22.8252 2.75195 20.3887L2.75781 20.1553C2.87807 17.8346 4.74822 15.9722 7.08496 15.8564L7.32031 15.8506Z" stroke="black" stroke-width="1.5"/>
<path d="M20.9609 12.3374C21.0989 12.4565 21.292 12.5948 21.5498 12.6157C21.7403 12.6312 21.9072 12.5775 22.043 12.5122L22.168 12.4458V12.4448C22.8948 12.0226 23.6304 11.5988 24.3584 11.1753L24.3574 11.1743C24.4611 11.1142 24.5414 11.0891 24.6113 11.0845L24.6787 11.0864C24.8469 11.1076 24.9806 11.2142 25.0361 11.3716L25.0547 11.4419C25.0808 11.5797 25.0247 11.7407 24.8799 11.8462L24.8125 11.8872L21.3115 13.6978C21.294 13.7068 21.2784 13.7133 21.2656 13.7192C21.2548 13.7109 21.242 13.701 21.2275 13.689H21.2266C20.8408 13.3673 20.4551 13.0451 20.0693 12.7231L18.9111 11.7563C18.7862 11.6521 18.5828 11.5164 18.3164 11.5308C18.1129 11.5418 17.9559 11.6353 17.8428 11.7339L17.7441 11.8315L15.499 14.3081C15.381 14.4388 15.2336 14.6542 15.2598 14.938C15.279 15.1451 15.3836 15.301 15.4893 15.4116L15.5928 15.5073L17.7607 17.3149C17.7777 17.329 17.7895 17.3424 17.7998 17.3521C17.796 17.3655 17.7934 17.3831 17.7861 17.4038L16.1963 21.939C16.127 22.1343 16.0921 22.3495 16.1328 22.5747C16.1638 22.7459 16.2333 22.8985 16.3301 23.0327L16.4355 23.1606C16.5143 23.246 16.5898 23.3312 16.6611 23.4165L16.8613 23.6743C17.0204 23.8968 17.0538 24.1069 16.9658 24.3374L16.9199 24.438C16.7816 24.7053 16.5731 24.8171 16.3457 24.8296C16.1712 24.8281 16.0492 24.7998 15.9551 24.7563C15.8842 24.7236 15.8144 24.6762 15.7422 24.605L15.6689 24.5249L14.3604 22.9683C14.3091 22.9089 14.3038 22.8797 14.3027 22.8735C14.3021 22.87 14.3013 22.8605 14.3037 22.8423L14.3271 22.7583L15.9014 18.5923C15.9655 18.4224 16.0585 18.1613 15.9795 17.8853C15.92 17.6775 15.7822 17.5294 15.6553 17.4214L15.5352 17.3257C14.2812 16.3805 13.0268 15.4361 11.7725 14.4917C13.4479 12.5752 15.1231 10.6585 16.7988 8.74268L20.9609 12.3374Z" fill="black" stroke="black"/>
<path d="M20.1709 5.88916C20.8453 5.95429 21.3738 6.47895 21.4443 7.14404L21.4521 7.28857C21.4562 8.07837 20.822 8.71608 20.0312 8.71729C19.2911 8.7179 18.6864 8.16482 18.6094 7.45264L18.6016 7.30811C18.5963 6.52108 19.226 5.8848 20.0244 5.88232L20.1709 5.88916Z" fill="black" stroke="black"/>
</mask>
<g mask="url(#mask0_936_5050)">
<rect width="32" height="32" fill="black"/>
</g>
</svg>
