<svg width="32" height="32" viewBox="0 0 32 32" fill="none" xmlns="http://www.w3.org/2000/svg">
<mask id="mask0_936_7328" style="mask-type:alpha" maskUnits="userSpaceOnUse" x="0" y="0" width="32" height="32">
<path d="M8.94887 25.3334H23.0515C23.2906 25.3334 23.4955 25.2352 23.6662 25.0387C23.8369 24.8423 23.9053 24.6245 23.8715 24.3854L22.2022 12.6921C22.1675 12.4876 22.0733 12.321 21.9195 12.1921C21.7658 12.0641 21.5862 12.0001 21.3809 12.0001H10.6169C10.4124 12.0001 10.2329 12.0641 10.0782 12.1921C9.92442 12.3201 9.83065 12.4867 9.79687 12.6921L8.12754 24.3854C8.09376 24.6245 8.1622 24.8423 8.33287 25.0387C8.50354 25.2352 8.70976 25.3334 8.94887 25.3334ZM15.9995 10.6667C16.3773 10.6667 16.6942 10.5387 16.9502 10.2827C17.2062 10.0267 17.3338 9.7103 17.3329 9.33341C17.332 8.95653 17.204 8.64008 16.9489 8.38408C16.6938 8.12808 16.3773 8.00008 15.9995 8.00008C15.6218 8.00008 15.3053 8.12808 15.0502 8.38408C14.7951 8.64008 14.6671 8.95653 14.6662 9.33341C14.6653 9.7103 14.7933 10.0272 15.0502 10.2841C15.3071 10.541 15.6235 10.6685 15.9995 10.6667ZM18.2795 10.6667H21.4075C21.9542 10.6667 22.4253 10.8419 22.8209 11.1921C23.2155 11.5423 23.4511 11.9885 23.5275 12.5307L25.1969 24.2241C25.2911 24.8694 25.124 25.4379 24.6955 25.9294C24.268 26.421 23.72 26.6667 23.0515 26.6667H8.94754C8.27909 26.6667 7.73065 26.421 7.3022 25.9294C6.87376 25.4379 6.70665 24.869 6.80087 24.2227L8.4702 12.5307C8.54754 11.9885 8.78309 11.5423 9.17687 11.1921C9.5742 10.8419 10.0462 10.6667 10.5929 10.6667H13.7222C13.604 10.4783 13.5098 10.2703 13.4395 10.0427C13.3684 9.8143 13.3329 9.57786 13.3329 9.33341C13.3329 8.58141 13.5893 7.94897 14.1022 7.43608C14.6151 6.92319 15.2475 6.66675 15.9995 6.66675C16.7515 6.66675 17.384 6.92319 17.8969 7.43608C18.4098 7.94897 18.6662 8.58141 18.6662 9.33341C18.6662 9.57786 18.6311 9.8143 18.5609 10.0427C18.4906 10.2703 18.3969 10.4783 18.2795 10.6667Z" fill="black"/>
</mask>
<g mask="url(#mask0_936_7328)">
<rect width="32" height="32" fill="black"/>
</g>
</svg>
