<svg width="33" height="33" viewBox="0 0 33 33" fill="none" xmlns="http://www.w3.org/2000/svg">
<g clip-path="url(#clip0_795_1316)">
<g clip-path="url(#clip1_795_1316)">
<g clip-path="url(#clip2_795_1316)">
<path d="M12.9909 6.87428L13.3391 6.75007L13.233 6.44849L12.9206 6.5091L12.9909 6.87428ZM18.5414 6.94568L18.6206 6.58236L18.3101 6.51356L18.1962 6.81218L18.5414 6.94568ZM21.6942 22.986C21.5961 22.986 21.5022 23.0252 21.4328 23.0949C21.3635 23.1647 21.3245 23.2592 21.3245 23.3579C21.3245 23.4565 21.3635 23.5511 21.4328 23.6208C21.5022 23.6906 21.5961 23.7297 21.6942 23.7297V22.986ZM23.173 23.3579H23.5427C23.5427 23.2592 23.5037 23.1647 23.4344 23.0949C23.3651 23.0252 23.2711 22.986 23.173 22.986V23.3579ZM20.9549 21.4985C21.0529 21.4985 21.1469 21.4594 21.2162 21.3896C21.2856 21.3199 21.3245 21.2253 21.3245 21.1266C21.3245 21.028 21.2856 20.9334 21.2162 20.8637C21.1469 20.7939 21.0529 20.7548 20.9549 20.7548V21.4985ZM19.476 21.1266H19.1063C19.1063 21.2253 19.1454 21.3199 19.2147 21.3896C19.284 21.4594 19.378 21.4985 19.476 21.4985V21.1266ZM23.1472 21.9318C23.1634 22.0291 23.2174 22.1159 23.2973 22.1731C23.3772 22.2303 23.4764 22.2533 23.5732 22.2369C23.6699 22.2205 23.7563 22.1662 23.8131 22.0858C23.87 22.0054 23.8928 21.9056 23.8766 21.8083L23.1472 21.9318ZM19.5019 22.5521C19.4856 22.4548 19.4317 22.368 19.3517 22.3107C19.2718 22.2535 19.1726 22.2305 19.0759 22.247C18.9791 22.2633 18.8928 22.3177 18.836 22.398C18.7791 22.4784 18.7562 22.5782 18.7725 22.6755L19.5019 22.5521ZM22.8033 24.8454C22.8033 24.944 22.8422 25.0386 22.9116 25.1083C22.9809 25.178 23.075 25.2172 23.173 25.2172C23.2711 25.2172 23.3651 25.178 23.4344 25.1083C23.5037 25.0386 23.5427 24.944 23.5427 24.8454H22.8033ZM19.8458 19.6392C19.8458 19.5405 19.8068 19.4459 19.7375 19.3762C19.6682 19.3064 19.5741 19.2673 19.476 19.2673C19.378 19.2673 19.284 19.3064 19.2147 19.3762C19.1454 19.4459 19.1063 19.5405 19.1063 19.6392H19.8458ZM10.4097 8.04865C11.2631 7.68724 12.1516 7.41605 13.0607 7.23946L12.9206 6.5091C11.9611 6.69553 11.0234 6.9818 10.1228 7.36329L10.4097 8.04865ZM6.23951 9.81505L10.4097 8.04865L10.1228 7.36329L5.95263 9.12969L6.23951 9.81505ZM7.17853 13.2802L6.23951 9.81505L5.526 10.0106L6.4654 13.4754L7.17853 13.2802ZM9.39005 13.0024L7.17853 13.2802L7.27059 14.0179L9.48173 13.7402L9.39005 13.0024ZM9.90762 24.4426L10.2207 13.7625L9.48173 13.7402L9.16861 24.4203L9.90762 24.4426ZM15.7791 25.5891C13.8779 25.5908 11.9859 25.3244 10.1583 24.7978L9.95421 25.5125C11.8482 26.0584 13.8089 26.3345 15.7791 26.3329V25.5891ZM24.01 13.2802L21.7984 13.0024L21.7068 13.7402L23.918 14.0183L24.01 13.2802ZM24.9491 9.81505L24.01 13.2802L24.7231 13.4758L25.6625 10.0106L24.9491 9.81505ZM20.7789 8.04865L24.9491 9.81505L25.2362 9.12969L21.0662 7.36329L20.7789 8.04865ZM18.462 7.30863C19.2532 7.48341 20.0288 7.73107 20.7789 8.04865L21.0662 7.36329C20.2764 7.02878 19.4576 6.76739 18.6206 6.58236L18.462 7.30863ZM15.7791 6.99551C14.8921 6.99611 14.0079 6.89341 13.1443 6.68946L12.975 7.4135C13.8759 7.62658 14.8145 7.73925 15.7791 7.73925V6.99551ZM15.7791 8.483C15.2724 8.48308 14.7768 8.33358 14.3539 8.05304C13.9308 7.77249 13.599 7.37324 13.3994 6.90477L12.7199 7.19818C12.9765 7.80034 13.4032 8.31351 13.947 8.67409C14.4908 9.03468 15.1278 9.22684 15.7791 9.22674V8.483ZM13.3994 6.90477C13.3777 6.85387 13.3576 6.80228 13.3391 6.75007L12.6423 6.99849C12.6663 7.06617 12.6922 7.13236 12.7199 7.19818L13.3994 6.90477ZM18.4139 6.68946C17.5503 6.8934 16.6662 6.9961 15.7791 6.99551V7.73925C16.7437 7.73925 17.6823 7.62658 18.5833 7.4135L18.4139 6.68946ZM18.1962 6.81218C18.1844 6.8434 18.1717 6.8744 18.1588 6.90515L18.8383 7.19818C18.8549 7.15876 18.8712 7.11897 18.8864 7.07881L18.1962 6.81218ZM18.1588 6.90515C17.9591 7.37348 17.6272 7.77256 17.2043 8.05297C16.7812 8.33338 16.2857 8.48314 15.7791 8.483V9.22674C17.1522 9.22674 18.33 8.3904 18.8383 7.19818L18.1588 6.90515ZM25.6625 10.0106C25.7098 9.83673 25.6925 9.65149 25.6141 9.48937C25.5357 9.32725 25.4014 9.19967 25.2362 9.12969L24.9491 9.81505L25.6625 10.0106ZM23.918 14.0183C24.0946 14.0405 24.2733 13.9979 24.4213 13.8982C24.5691 13.7986 24.6763 13.6486 24.7231 13.4758L24.01 13.2802L23.918 14.0183ZM21.7068 13.7402L21.7984 13.0024C21.6927 12.9891 21.5852 12.999 21.4835 13.0314C21.3819 13.0638 21.2883 13.1179 21.2095 13.1901C21.1306 13.2623 21.0681 13.3507 21.0263 13.4495C20.9846 13.5482 20.9647 13.6549 20.9678 13.7621L21.7068 13.7402ZM9.16861 24.4203C9.15419 24.9164 9.46842 25.3723 9.95421 25.5125L10.1583 24.7978C10.0832 24.775 10.0178 24.7278 9.97239 24.6634C9.927 24.5991 9.90421 24.5214 9.90762 24.4426L9.16861 24.4203ZM9.48173 13.7402L10.2207 13.7625C10.2239 13.6552 10.2043 13.5484 10.1626 13.4496C10.1209 13.3508 10.0584 13.2623 9.97948 13.19C9.90052 13.1178 9.80694 13.0637 9.7052 13.0313C9.60345 12.9989 9.49594 12.989 9.39005 13.0024L9.48173 13.7402ZM6.4654 13.4754C6.51225 13.6481 6.61948 13.7988 6.7674 13.8984C6.91531 13.998 7.09397 14.0402 7.27059 14.0179L7.17853 13.2802L6.4654 13.4754ZM5.95263 9.12969C5.78745 9.19967 5.65317 9.32725 5.57476 9.48937C5.49636 9.65149 5.47879 9.83673 5.526 10.0106L6.23951 9.81505L5.95263 9.12969ZM25.7609 22.2422C25.7609 24.707 23.7745 26.7047 21.3245 26.7047V27.4485C24.183 27.4485 26.5003 25.1176 26.5003 22.2422H25.7609ZM16.8882 22.2422C16.8882 19.7779 18.8745 17.7798 21.3245 17.7798V17.0361C18.4661 17.0361 16.1488 19.367 16.1488 22.2422H16.8882ZM21.3245 17.7798C21.3615 17.7798 21.3985 17.7802 21.4354 17.7813L21.4535 17.0376C21.4106 17.0365 21.3675 17.036 21.3245 17.0361V17.7798ZM21.4354 17.7813C23.8344 17.84 25.7609 19.8147 25.7609 22.2422H26.5003C26.5003 19.4105 24.2526 17.1067 21.4535 17.0376L21.4354 17.7813ZM20.9678 13.7621L21.075 17.4205L21.814 17.3982L21.7068 13.7402L20.9678 13.7621ZM21.3245 26.7047C20.1811 26.7047 19.1392 26.2697 18.3522 25.5552L17.8568 26.1071C18.8069 26.972 20.0431 27.4501 21.3245 27.4485V26.7047ZM18.3522 25.5552C17.8907 25.1373 17.5218 24.6263 17.2696 24.0555C17.0174 23.4847 16.8874 22.8669 16.8882 22.2422H16.1488C16.1488 23.7758 16.8083 25.1548 17.8568 26.1071L18.3522 25.5552ZM18.0634 25.4615C17.3137 25.546 16.5514 25.5891 15.7791 25.5891V26.3329C16.5792 26.3329 17.3688 26.2882 18.1455 26.2008L18.0634 25.4615ZM21.6942 23.7297H23.173V22.986H21.6942V23.7297ZM20.9549 20.7548H19.476V21.4985H20.9549V20.7548ZM22.6318 23.5572C22.4601 23.7299 22.2563 23.8669 22.032 23.9604C21.8077 24.0538 21.5674 24.102 21.3245 24.102C21.0817 24.102 20.8414 24.0538 20.617 23.9604C20.3928 23.8669 20.189 23.7299 20.0173 23.5572L19.4946 24.0831C19.7348 24.3248 20.0202 24.5165 20.3341 24.6473C20.6482 24.7782 20.9847 24.8455 21.3245 24.8455C21.6644 24.8455 22.0009 24.7782 22.315 24.6473C22.6289 24.5165 22.9142 24.3248 23.1545 24.0831L22.6318 23.5572ZM20.0173 20.9277C20.189 20.755 20.3928 20.618 20.617 20.5245C20.8414 20.4311 21.0817 20.3829 21.3245 20.3829C21.5674 20.3829 21.8077 20.4311 22.032 20.5245C22.2563 20.618 22.4601 20.7546 22.6318 20.9274L23.1545 20.4015C22.9142 20.1597 22.6289 19.968 22.315 19.8371C22.0009 19.7063 21.6644 19.6389 21.3245 19.6389C20.9847 19.6389 20.6482 19.7063 20.3341 19.8371C20.0202 19.968 19.7348 20.1594 19.4946 20.4011L20.0173 20.9277ZM22.6318 20.9274C22.9035 21.1998 23.0837 21.5512 23.1472 21.9318L23.8766 21.8083C23.7877 21.2749 23.5352 20.7834 23.1545 20.4015L22.6318 20.9274ZM20.0173 23.5572C19.7455 23.2848 19.5654 22.9327 19.5019 22.5521L18.7725 22.6755C18.8613 23.2089 19.1139 23.7011 19.4946 24.0831L20.0173 23.5572ZM22.8651 23.2705C22.7985 23.3717 22.7209 23.4679 22.6318 23.5572L23.1545 24.0831C23.2763 23.9606 23.3856 23.8263 23.481 23.6821L22.8651 23.2705ZM22.8033 23.3579V23.4765H23.5427V23.3579H22.8033ZM22.8033 23.4765V24.8454H23.5427V23.4765H22.8033ZM19.784 21.214C19.8505 21.1133 19.9279 21.017 20.0173 20.9277L19.4946 20.4011C19.3707 20.5257 19.262 20.6603 19.1681 20.8024L19.784 21.214ZM19.8458 21.1266V21.008H19.1063V21.1266H19.8458ZM19.8458 21.008V19.6392H19.1063V21.008H19.8458Z" fill="white"/>
</g>
</g>
</g>
<defs>
<clipPath id="clip0_795_1316">
<rect width="32" height="32" fill="white" transform="translate(0.332031 0.115234)"/>
</clipPath>
<clipPath id="clip1_795_1316">
<rect width="21" height="21" fill="white" transform="translate(5.5 6.44849)"/>
</clipPath>
<clipPath id="clip2_795_1316">
<rect width="21" height="21" fill="white" transform="translate(5.5 6.44849)"/>
</clipPath>
</defs>
</svg>
