<?xml version="1.0" encoding="iso-8859-1"?>
<!-- Uploaded to: SVG Repo, www.svgrepo.com, Generator: SVG Repo Mixer Tools -->
<!DOCTYPE svg PUBLIC "-//W3C//DTD SVG 1.1//EN" "http://www.w3.org/Graphics/SVG/1.1/DTD/svg11.dtd">
<svg fill="#000000" height="800px" width="800px" version="1.1" id="Capa_1" xmlns="http://www.w3.org/2000/svg" xmlns:xlink="http://www.w3.org/1999/xlink" 
	 viewBox="0 0 369.27 369.27" xml:space="preserve">
<g>
	<path d="M335.904,168.193l-20.185-20.474c-0.02-0.02-0.044-0.034-0.065-0.054V5c0-2.761-2.238-5-5-5h-204.83c-2.762,0-5,2.239-5,5
		c0,2.761,2.238,5,5,5h199.83c0,0,0.034,181.574,0.052,181.745l-53.467,49.786c-0.139-0.012-91.915-0.042-91.915-0.042
		c-2.762,0-5,2.239-5,5c0,2.761,2.238,5,5,5h81.221l-13.457,12.531h-86.876l-13.46-12.53h16.919c2.762,0,5-2.239,5-5
		c0-2.761-2.238-5-5-5H117.01l-53.495-49.798C63.599,191.328,63.654,10,63.654,10h25.67c2.762,0,5-2.239,5-5c0-2.761-2.238-5-5-5
		h-30.67c-2.762,0-5,2.239-5,5v144.151l-20.143,18.907c-1.296,1.216-1.619,3.706-1.619,5.719v190.491c0,2.761,2.238,5,5,5h152.932
		c2.762,0,5-2.239,5-5s-2.238-5-5-5H49.681l63.253-58.663c2.024-1.878,2.144-5.041,0.266-7.066c-1.878-2.025-5.04-2.143-7.066-0.266
		l-64.241,59.579V185.228l90.013,83.793l-12.986,12.09c-2.021,1.882-2.134,5.045-0.252,7.067c1.881,2.02,5.043,2.133,7.066,0.252
		l15.477-14.409h86.864l72.292,66.939c0.963,0.891,2.181,1.331,3.396,1.331c1.344,0,2.685-0.539,3.67-1.603
		c1.876-2.026,1.754-5.189-0.271-7.066l-69.769-64.602l89.985-83.79v167.586l-8.051-7.495c-2.023-1.881-5.186-1.767-7.066,0.253
		c-1.882,2.022-1.769,5.185,0.252,7.067l7.119,6.628H207.444c-2.762,0-5,2.239-5,5s2.238,5,5,5h124.866
		c0.011,0,0.021,0.003,0.032,0.003c0.01,0,0.019-0.003,0.029-0.003h0.006c2.762,0,5-2.239,5-5V173.777
		C337.378,171.451,337.111,169.418,335.904,168.193z M315.654,161.898l10.581,10.732l-10.581,9.853V161.898z M53.654,182.514
		l-10.509-9.783l10.509-9.865V182.514z"/>
	<path d="M99.654,214.741h170c2.762,0,5-2.239,5-5c0-2.761-2.238-5-5-5h-170c-2.762,0-5,2.239-5,5
		C94.654,212.502,96.893,214.741,99.654,214.741z"/>
	<path d="M99.654,178.169h74.704c2.762,0,5-2.239,5-5c0-2.761-2.238-5-5-5H99.654c-2.762,0-5,2.239-5,5
		C94.654,175.931,96.893,178.169,99.654,178.169z"/>
	<path d="M269.654,168.169h-64.312c-2.762,0-5,2.239-5,5c0,2.761,2.238,5,5,5h64.312c2.762,0,5-2.239,5-5
		C274.654,170.408,272.416,168.169,269.654,168.169z"/>
	<path d="M188.082,168.169c-2.762,0-5,2.239-5,5c0,2.761,2.238,5,5,5h3.487c2.762,0,5-2.239,5-5c0-2.761-2.238-5-5-5H188.082z"/>
	<path d="M99.654,141.598h170c2.762,0,5-2.239,5-5c0-2.761-2.238-5-5-5h-170c-2.762,0-5,2.239-5,5
		C94.654,139.359,96.893,141.598,99.654,141.598z"/>
	<path d="M99.539,95.028c-2.761,0.063-4.947,2.353-4.884,5.113c0.063,2.722,2.289,4.885,4.997,4.885
		c0.039,0,0.078-0.001,0.117-0.002c6.114-0.141,11.054-0.141,17.047,0c0.04,0.001,0.08,0.002,0.119,0.002
		c2.707,0,4.933-2.162,4.997-4.883c0.065-2.761-2.121-5.051-4.882-5.116C110.893,94.883,105.818,94.883,99.539,95.028z"/>
	<path d="M127.706,100.034c0.004,2.758,2.241,4.992,5,4.992h117.061c1.102,0,2.189-0.377,3.063-1.047
		c0.037-0.029,0.116-0.091,0.152-0.121c1.639-1.334,2.262-3.555,1.556-5.547c-0.706-1.992-2.588-3.325-4.701-3.33
		c-16.887-0.041-33.705-0.061-50.542-0.061c-21.979,0-44.387,0.035-66.604,0.105C129.932,95.035,127.702,97.276,127.706,100.034z"/>
	<path d="M263.182,95.009c-0.005,0-0.009,0-0.014,0c-2.389,0-4.444,1.69-4.906,4.035c-0.462,2.35,0.807,4.697,3.024,5.598
		c0.033,0.014,0.075,0.03,0.114,0.045c0.578,0.225,1.192,0.34,1.814,0.34h6.44c2.759,0,4.996-2.234,5-4.992
		s-2.226-4.999-4.984-5.008L263.182,95.009z"/>
	<path d="M238.324,68.436c2.762,0,5-2.239,5-5c0-2.761-2.238-5-5-5h-65.17c-2.762,0-5,2.239-5,5c0,2.761,2.238,5,5,5H238.324z"/>
	<path d="M99.654,68.384h58.425c2.762,0,5-2.239,5-5s-2.238-5-5-5H99.654c-2.762,0-5,2.239-5,5S96.893,68.384,99.654,68.384z"/>
	<path d="M269.654,58.544h-16.83c-2.762,0-5,2.239-5,5c0,2.761,2.238,5,5,5h16.83c2.762,0,5-2.239,5-5
		C274.654,60.783,272.416,58.544,269.654,58.544z"/>
</g>
</svg>