<svg width="1187" height="372" viewBox="0 0 1187 372" fill="none" xmlns="http://www.w3.org/2000/svg">
<path d="M1186.28 0H-6V372H1188L1186.28 0Z" fill="#ED2924"/>
<mask id="mask0_2040_1459" style="mask-type:alpha" maskUnits="userSpaceOnUse" x="-6" y="0" width="1194" height="372">
<path d="M1186.28 0H-6V372H1188L1186.28 0Z" fill="#ED2924"/>
</mask>
<g mask="url(#mask0_2040_1459)">
<path d="M996.409 321.502L996.222 321.027H995.711H866.652H866.137L865.952 321.508L847.18 370.497H717.127L755.541 278.787L794.389 186.037L871.894 0.99707H993.106L1147.87 370.497H1015.71L996.409 321.502ZM965.162 235.18H966.247L965.864 234.166L932.149 144.701L931.447 142.839L930.745 144.701L897.03 234.166L896.647 235.18H897.731H965.162Z" stroke="black" stroke-width="1.5"/>
<path d="M872.794 0H730V338H873L872.794 0Z" fill="#ED2924"/>
<path d="M134.123 249.827V122.203L6.50001 122.203L6.50001 249.827H134.123Z" fill="#ED2924" stroke="black" stroke-width="1.5" stroke-miterlimit="10"/>
<path d="M133.956 249.827L6.5 122.361" stroke="black" stroke-width="1.5" stroke-miterlimit="10"/>
<path d="M-20 275.75L254.5 1.25012" stroke="black" stroke-width="1.5" stroke-miterlimit="10"/>
<path d="M652.018 0.775879H531.042V120.648H652.018V0.775879Z" fill="#ED2924" stroke="black" stroke-width="1.5" stroke-miterlimit="10"/>
<path d="M652.604 0.253725L880.042 250.25" stroke="black" stroke-width="1.5"/>
<path d="M532.604 119.254L759.042 371.25" stroke="black" stroke-width="1.5"/>
<path d="M254.476 0.775879H503.322C596.172 0.775879 671.557 76.1605 671.557 169.01V203.419C671.557 295.973 596.419 371.111 503.865 371.111H254.476V0.775879Z" fill="#ED2924" stroke="black" stroke-width="1.5" stroke-miterlimit="10"/>
<path fill-rule="evenodd" clip-rule="evenodd" d="M375.452 250.135V122.482H500.709C535.955 122.482 564.535 151.062 564.535 186.308C564.535 221.555 535.955 250.135 500.709 250.135H375.452Z" fill="#ED2924" stroke="black" stroke-width="1.5" stroke-miterlimit="10"/>
<path fill-rule="evenodd" clip-rule="evenodd" d="M496.567 250.135L751.547 0.775879L872.523 120.648L617.543 371.111L496.567 250.135Z" fill="#ED2924" stroke="black" stroke-width="1.5" stroke-miterlimit="10"/>
<path d="M617.543 250.135H496.567V371.111H617.543V250.135Z" fill="#ED2924" stroke="black" stroke-width="1.5" stroke-miterlimit="10"/>
<path d="M880.018 250.135H759.042V371.111H880.018V250.135Z" fill="#ED2924" stroke="black" stroke-width="1.5" stroke-miterlimit="10"/>
<path d="M254.476 250.135H133.5V371.111H254.476V250.135Z" fill="#ED2924" stroke="black" stroke-width="1.5" stroke-miterlimit="10"/>
<path d="M751.547 120.648L617.543 250.135" stroke="black" stroke-width="1.5" stroke-miterlimit="10"/>
<path d="M375.453 0.775879H254.476V122.294H375.453V0.775879Z" fill="#ED2924" stroke="black" stroke-width="1.5" stroke-miterlimit="10"/>
<path d="M254.476 0.775879L375.531 122.265" stroke="black" stroke-width="1.5" stroke-miterlimit="10"/>
<path d="M872.523 0.775879H751.547V120.648H872.523V0.775879Z" fill="#ED2924" stroke="black" stroke-width="1.5" stroke-miterlimit="10"/>
<path d="M759.592 250.35L751.042 240.75" stroke="black" stroke-width="1.5"/>
<path d="M1173.62 249.827V122.204L1046 122.204V249.827H1173.62Z" fill="#ED2924" stroke="black" stroke-width="1.5" stroke-miterlimit="10"/>
<path d="M1173.46 249.827L1046 122.362" stroke="black" stroke-width="1.5" stroke-miterlimit="10"/>
<path d="M1046 249.827L1243 52.8269" stroke="black" stroke-width="1.5" stroke-miterlimit="10"/>
</g>
</svg>
