<svg width="147" height="42" viewBox="0 0 147 42" fill="none" xmlns="http://www.w3.org/2000/svg">
<path d="M1.59708 20.6932V7.94918L11.9001 1.43943L21.9851 7.81142L11.7666 14.2678L1.59708 20.6932Z" fill="white" stroke="#0741FF" stroke-width="0.5"/>
<path d="M1.59708 34.3445V21.2846L11.6501 14.9328V27.8146V28.2682L12.0337 28.0259L22.2032 21.6005V34.3445L11.9001 40.8543L1.59708 34.3445Z" fill="white" stroke="#0741FF" stroke-width="0.5"/>
<path d="M12.3779 14.4791L22.4629 8.10714L32.766 14.6169V27.6768L22.7129 34.0286V21.1468V21.0091L22.5965 20.9355L12.3779 14.4791Z" fill="white" stroke="#0741FF" stroke-width="0.5"/>
<path fill-rule="evenodd" clip-rule="evenodd" d="M78.6453 29.7318H82.4712V14.4685H78.6453V29.7318ZM78.509 11.6246H82.6075V7.43862H78.509V11.6246Z" fill="white"/>
<path fill-rule="evenodd" clip-rule="evenodd" d="M85.5378 18.0367V14.4685H88.108V9.49433L91.3498 7.44928H95.0103V11.0175H91.9437V14.4685H95.0103V18.0367H91.9437V29.7318H88.1177V18.0367H85.5476H85.5378Z" fill="white"/>
<path fill-rule="evenodd" clip-rule="evenodd" d="M101.358 26.3127H106.128V17.8875H101.358V26.3127ZM109.954 27.8359L106.712 29.8809H100.764L97.522 27.8359V16.3538L100.764 14.3087H106.712L109.954 16.3538V27.8359Z" fill="white"/>
<path fill-rule="evenodd" clip-rule="evenodd" d="M119.952 14.4685L117.966 15.7253L115.98 14.4685H114.15V29.7318H117.976V18.0367H122.775V14.4685H119.962H119.952Z" fill="white"/>
<path fill-rule="evenodd" clip-rule="evenodd" d="M71.2172 14.3194H67.9949L65.7655 15.7253L63.5361 14.3194H62.0369V29.7424H65.8628V17.8982H70.6331V29.7424H74.4591V16.3644L71.2172 14.3194V14.3194Z" fill="white"/>
<path fill-rule="evenodd" clip-rule="evenodd" d="M54.0345 14.4685V26.3127H49.2642V14.4685H45.4382V27.8465L48.6801 29.8916H52.0485L54.0345 28.6347L56.0107 29.8916H57.8507V14.4685H54.0247H54.0345Z" fill="white"/>
<path fill-rule="evenodd" clip-rule="evenodd" d="M139.257 14.3194L136.629 15.9703L134.029 14.3194H131.352L129.366 15.5762L127.38 14.3194H125.54V29.7424H129.366V17.8982H133.445V29.7424H137.271V17.8982H141.35V29.7424H145.176V16.3644L141.934 14.3194H139.257Z" fill="white"/>
</svg>
