<svg width="1023" height="1024" viewBox="0 0 1023 1024" fill="none" xmlns="http://www.w3.org/2000/svg">
<path d="M219.154 494C219.154 443.333 231.487 397 256.154 355C280.82 312.333 313.154 278.333 353.154 253C393.154 227.667 438.82 213 490.154 209C541.487 205.667 593.82 217 647.154 243C670.487 254.333 691.487 269.333 710.154 288C728.82 306.667 744.154 327 756.154 349C775.487 389 786.82 428.333 790.154 467C792.82 505.667 788.82 542 778.154 576C767.487 610 751.154 641 729.154 669C707.154 696.333 681.487 719 652.154 737V788C652.154 794 649.82 799.333 645.154 804C640.487 808.667 634.82 811 628.154 811L396.154 811C390.154 811 384.82 808.667 380.154 804C375.487 799.333 373.154 794 373.154 788V745C327.154 721.667 289.987 687.5 261.654 642.5C233.32 597.5 219.154 548 219.154 494ZM394.154 873L626.154 873C632.82 873 638.32 875.333 642.654 880C646.987 884.667 649.154 890 649.154 896V967C649.154 973 646.987 978.333 642.654 983C638.32 987.667 632.82 990 626.154 990H579.154C579.154 999.333 572.32 1007.33 558.654 1014C544.987 1020.67 528.487 1024 509.154 1024C489.82 1024 473.32 1020.67 459.654 1014C445.987 1007.33 439.154 999.333 439.154 990H392.154C385.487 990 379.82 987.667 375.154 983C370.487 978.333 368.154 973 368.154 967V894C369.487 888 372.487 883 377.154 879C381.82 875 387.487 873 394.154 873ZM511.154 168C517.82 168 523.32 165.667 527.654 161C531.987 156.333 534.154 151 534.154 145V23C534.154 17 531.987 11.6667 527.654 7C523.32 2.33333 517.82 0 511.154 0C504.487 0 498.987 2.33333 494.654 7C490.32 11.6667 488.154 17 488.154 23V145C488.154 151 490.32 156.333 494.654 161C498.987 165.667 504.487 168 511.154 168ZM743.154 238C748.487 242.667 754.32 244.667 760.654 244C766.987 243.333 771.82 240.667 775.154 236L854.154 143C858.154 137.667 859.82 132 859.154 126C858.487 120 856.154 115 852.154 111C846.82 106.333 840.987 104.333 834.654 105C828.32 105.667 823.487 108.333 820.154 113L741.154 207C737.154 211.667 735.154 217 735.154 223C735.154 229 737.82 234 743.154 238ZM856.154 443C857.487 449 860.82 454 866.154 458C871.487 462 877.487 463.333 884.154 462L1003.15 441C1009.15 439.667 1014.15 436.333 1018.15 431C1022.15 425.667 1023.49 419.667 1022.15 413C1020.82 406.333 1017.49 401.167 1012.15 397.5C1006.82 393.833 1000.82 392.667 994.154 394L875.154 415C869.154 417 864.154 420.833 860.154 426.5C856.154 432.167 854.82 437.667 856.154 443ZM166.154 443C167.487 436.333 166.32 430.333 162.654 425C158.987 419.667 153.82 416.333 147.154 415L28.1538 394C21.4871 392.667 15.4871 393.833 10.1538 397.5C4.82048 401.167 1.48714 406.333 0.153809 413C-0.512858 419.667 0.987142 425.667 4.65381 431C8.32048 436.333 13.1538 439.667 19.1538 441L139.154 462C145.154 463.333 150.987 462 156.654 458C162.32 454 165.487 449 166.154 443ZM281.154 234C284.487 230 285.82 225.5 285.154 220.5C284.487 215.5 282.487 211 279.154 207C270.487 196.333 257.654 180.667 240.654 160C223.654 139.333 210.154 123.667 200.154 113C196.82 109.667 192.82 107.167 188.154 105.5C183.487 103.833 178.487 104 173.154 106C165.154 109.333 160.32 115 158.654 123C156.987 131 158.82 137.667 164.154 143L243.154 236C248.487 242.667 254.82 245.667 262.154 245C269.487 244.333 275.82 240.667 281.154 234Z" fill="#1AA3DE"/>
</svg>
