<svg width="1024" height="862" viewBox="0 0 1024 862" fill="none" xmlns="http://www.w3.org/2000/svg">
<path d="M54 135H350V27C350 19 352.5 12.5 357.5 7.5C362.5 2.5 369 0 377 0L647 0C655 0 661.5 2.5 666.5 7.5C671.5 12.5 674 19 674 27V135H970C984.667 135 997.333 140.167 1008 150.5C1018.67 160.833 1024 173.333 1024 188V420L940 504C937.333 506.667 934.333 508.667 931 510C927.667 511.333 924.667 512 922 512L593 512V593H431V512L102 512C98 512 94.6667 511.333 92 510C89.3333 508.667 86.6667 506.667 84 504L0 420L0 188C0 173.333 5.33333 160.833 16 150.5C26.6667 140.167 39.3333 135 54 135ZM593 81L431 81V135L593 135V81ZM102 566L377 566V647L647 647V566H922C932.667 566 943 564 953 560C963 556 971.333 549.667 978 541L1024 496V808C1024 822.667 1018.67 835.333 1008 846C997.333 856.667 984.667 862 970 862L54 862C39.3333 862 26.6667 856.667 16 846C5.33333 835.333 0 822.667 0 808V496L46 541C54 549.667 62.6667 556 72 560C81.3333 564 91.3333 566 102 566Z" fill="#1AA3DE"/>
</svg>
