<svg width="23" height="24" viewBox="0 0 23 24" fill="none" xmlns="http://www.w3.org/2000/svg">
<path d="M12.0824 11.0025V10.9769C12.0824 10.9769 12.0696 10.9961 12.0632 11.0025H12.0824Z" fill="white"/>
<path d="M19.3623 2.48987H3.38454C2.61822 2.48987 1.99878 3.09654 1.99878 3.8437V20.0131C1.99878 20.7602 2.61822 21.3669 3.38454 21.3669H19.3623C20.1287 21.3669 20.7481 20.7602 20.7481 20.0131V3.8437C20.7481 3.09654 20.1287 2.48987 19.3623 2.48987ZM7.68233 18.2889H4.84694V9.76354H7.68233V18.2825V18.2889ZM6.26464 8.60128H6.24548C5.29396 8.60128 4.6809 7.94991 4.6809 7.12611C4.6809 6.30232 5.31312 5.65094 6.28379 5.65094C7.25447 5.65094 7.84837 6.28955 7.86752 7.12611C7.86752 7.94352 7.25447 8.60128 6.26464 8.60128ZM17.8936 18.2889H15.0582V13.7292C15.0582 12.5862 14.6495 11.8007 13.6213 11.8007C12.8358 11.8007 12.3697 12.3307 12.1653 12.8352C12.0887 13.0204 12.0695 13.2695 12.0695 13.5249V18.2825H9.23413C9.23413 18.2825 9.27245 10.5618 9.23413 9.76354H12.0695V10.9705C12.4463 10.3894 13.1168 9.56557 14.6239 9.56557C16.4886 9.56557 17.8872 10.7853 17.8872 13.4036V18.2889H17.8936Z" fill="white"/>
<path d="M7.68231 9.76355H4.84692V18.2825H7.68231V9.76355Z" fill="#212B33"/>
<path d="M14.6303 9.56567C13.1232 9.56567 12.4526 10.3959 12.0759 10.9706V10.9961H12.0567C12.0567 10.9961 12.0695 10.977 12.0759 10.9706V9.76364H9.24048C9.27879 10.5619 9.24048 18.2826 9.24048 18.2826H12.0759V13.525C12.0759 13.2696 12.095 13.0141 12.1717 12.8353C12.376 12.3244 12.8422 11.8008 13.6277 11.8008C14.6494 11.8008 15.0645 12.5799 15.0645 13.7294V18.289H17.8999V13.4037C17.8999 10.7854 16.5014 9.56567 14.6367 9.56567H14.6303Z" fill="#212B33"/>
<path d="M6.2838 5.65735C5.31312 5.65735 4.68091 6.29595 4.68091 7.13252C4.68091 7.96909 5.29397 8.60769 6.24548 8.60769H6.26464C7.25447 8.60769 7.86753 7.95631 7.86753 7.13252C7.84837 6.29595 7.25447 5.65735 6.2838 5.65735Z" fill="#212B33"/>
</svg>
