<svg width="144" height="39" viewBox="0 0 144 39" fill="none" xmlns="http://www.w3.org/2000/svg">
<path d="M81.2096 14.9132H77.3838V29.4252H81.2096V14.9132Z" fill="white"/>
<path d="M81.3277 8.2312H77.2258V12.2076H81.3277V8.2312Z" fill="white"/>
<path d="M86.8493 10.1989V14.9133H84.2856V18.3158H86.8493V29.4662H90.6751V18.3158H93.7515V14.9133H90.6751V11.6337H93.7515V8.2312H90.0835L86.8493 10.1989Z" fill="white"/>
<path d="M99.5494 14.7904L96.3152 16.7581V27.6626L99.5494 29.6303H105.505L108.739 27.6626V16.7171L105.505 14.7494C105.505 14.7904 99.5494 14.7904 99.5494 14.7904ZM104.913 26.1868H100.141V18.1929H104.913V26.1868Z" fill="white"/>
<path d="M116.746 16.143L114.774 14.9132H112.92V29.4662H116.746V18.3157H121.558V14.9132H118.757L116.746 16.143Z" fill="white"/>
<path d="M66.7343 14.7904L64.4862 16.1432L62.238 14.7904H60.7393V29.4663H64.5651V18.1929H69.3375V29.4663H73.2027V16.7171L69.9291 14.7904H66.7343Z" fill="white"/>
<path d="M52.7327 26.1866H47.9603V14.9132H44.1345V27.6624L47.3687 29.5891H50.7607L52.7327 28.4003L54.7048 29.5891H56.5585V14.9132H52.7327V26.1866Z" fill="white"/>
<path d="M140.766 14.7904H138.084L135.441 16.3482L132.838 14.7904H130.156L128.184 15.9792L126.212 14.7904H124.358V29.4663H128.184V18.1929H132.246V29.4663H136.072V18.1929H140.174V29.4663H144V16.7171L140.766 14.7904Z" fill="white"/>
<path d="M10.728 0L0 6.4361V19.3493L10.728 12.9132L21.456 6.4361L10.728 0Z" fill="#7BB3FF"/>
<path d="M10.728 25.7854V12.9132L0 19.3493V32.2215L10.728 38.6576L21.456 32.2215V19.3493L10.728 25.7854Z" fill="#498DFF"/>
<path d="M21.456 6.43604L10.728 12.9131L21.456 19.3492V32.2214L32.1841 25.7853V12.9131L21.456 6.43604Z" fill="#E61408"/>
</svg>
