<svg width="24" height="24" viewBox="0 0 24 24" fill="none" xmlns="http://www.w3.org/2000/svg">
<path d="M20.0949 8.6013C20.1077 8.78649 20.1077 8.97169 20.1077 9.15688C20.1077 14.8277 15.7908 21.3669 7.89766 21.3669C5.56677 21.3669 3.28696 20.6964 1.32007 19.4384C1.65853 19.4767 1.99699 19.5022 2.34183 19.5022C4.27679 19.5022 6.14789 18.8572 7.66777 17.663C5.83498 17.6311 4.21932 16.4305 3.65735 14.6808C4.30234 14.8021 4.9601 14.7766 5.59231 14.6041C3.59349 14.2018 2.15025 12.4393 2.15025 10.3958V10.3383C2.74415 10.6704 3.41468 10.8556 4.09798 10.8747C2.21411 9.61667 1.63298 7.10697 2.76969 5.14646C4.94732 7.82859 8.15949 9.45702 11.6143 9.62945C11.2695 8.1415 11.742 6.57693 12.8532 5.52963C14.5838 3.90758 17.2979 3.9906 18.9263 5.71482C19.8842 5.52324 20.8102 5.17201 21.6531 4.6739C21.3338 5.67012 20.6633 6.51307 19.7693 7.0495C20.6186 6.94732 21.4488 6.72381 22.2343 6.37258C21.6595 7.23469 20.9315 7.98824 20.0949 8.59491V8.6013Z" fill="white"/>
</svg>
