<svg width="638" height="147" viewBox="0 0 638 147" fill="none" xmlns="http://www.w3.org/2000/svg">
<path d="M383.165 12.9696V1L371.202 1V12.9696H383.165Z" fill="#231F20" stroke="#231F20" stroke-width="0.2" stroke-miterlimit="10"/>
<path d="M251.182 145.467V133.498H239.218V145.467H251.182Z" fill="#231F20"/>
<path d="M244.634 140.049L376.003 7.53754" stroke="#231F20" stroke-width="0.47" stroke-miterlimit="10"/>
<path d="M239.218 12.9696V1L251.182 1V12.9696H239.218Z" fill="#231F20" stroke="#231F20" stroke-width="0.2" stroke-miterlimit="10"/>
<path d="M371.202 145.467V133.498H383.166V145.467H371.202Z" fill="#231F20"/>
<path d="M377.75 140.049L246.38 7.53754" stroke="#231F20" stroke-width="0.47" stroke-miterlimit="10"/>
<path d="M13.0151 13.9696V2L0.999999 2V13.9696H13.0151Z" fill="#231F20" stroke="#231F20" stroke-width="0.2" stroke-miterlimit="10"/>
<path d="M13.0151 146.467V134.498H1V146.467H13.0151Z" fill="#231F20"/>
<path d="M6.45269 141.049L7.0144 7.97795" stroke="#231F20" stroke-width="0.47" stroke-miterlimit="10"/>
<path d="M6.45264 7.97803H114.15C151.004 7.97803 180.939 37.7859 180.939 74.5135C180.939 111.227 151.018 141.049 114.15 141.049H6.45264V7.97803Z" stroke="#231F20" stroke-width="0.47" stroke-miterlimit="10"/>
<path d="M537.993 1H526.52V12.4782H537.993V1Z" fill="#231F20" stroke="#231F20" stroke-width="0.19" stroke-miterlimit="10"/>
<path d="M637.318 134.125H625.845V145.604H637.318V134.125Z" fill="#231F20"/>
<path d="M630.729 140.404L533.136 6.22729" stroke="#231F20" stroke-width="0.32" stroke-miterlimit="10"/>
<path d="M433.743 140.404L531.336 6.22729" stroke="#231F20" stroke-width="0.32" stroke-miterlimit="10"/>
<path d="M428 145.604H439.473V134.125H428V145.604Z" fill="#231F20"/>
</svg>
