<svg width="1221" height="854" viewBox="0 0 1221 854" fill="none" xmlns="http://www.w3.org/2000/svg">
<g clip-path="url(#clip0_1_3)">
<path d="M187.119 326.881H1080.66" stroke="#231F20" stroke-width="0.79" stroke-miterlimit="10"/>
<path d="M187.119 369.76H1080.66" stroke="#231F20" stroke-width="0.79" stroke-miterlimit="10"/>
<path d="M187.119 241.136H1080.66" stroke="#231F20" stroke-width="0.79" stroke-miterlimit="10"/>
<path d="M187.119 284.003H1080.66" stroke="#231F20" stroke-width="0.79" stroke-miterlimit="10"/>
<path d="M187.119 198.258H1080.66" stroke="#231F20" stroke-width="0.79" stroke-miterlimit="10"/>
<path d="M229.775 197.59V369.76" stroke="#231F20" stroke-width="0.89" stroke-miterlimit="10"/>
<path d="M187.119 197.59V369.76" stroke="#231F20" stroke-width="0.89" stroke-miterlimit="10"/>
<path d="M315.086 197.59V369.76" stroke="#231F20" stroke-width="0.89" stroke-miterlimit="10"/>
<path d="M357.742 197.59V369.76" stroke="#231F20" stroke-width="0.89" stroke-miterlimit="10"/>
<path d="M272.43 197.59V369.76" stroke="#231F20" stroke-width="0.89" stroke-miterlimit="10"/>
<path d="M446.081 197.59V369.76" stroke="#231F20" stroke-width="0.89" stroke-miterlimit="10"/>
<path d="M488.737 197.59V369.76" stroke="#231F20" stroke-width="0.89" stroke-miterlimit="10"/>
<path d="M403.425 197.59V369.76" stroke="#231F20" stroke-width="0.89" stroke-miterlimit="10"/>
<path d="M739.953 198.258V369.76" stroke="#231F20" stroke-width="0.88" stroke-miterlimit="10"/>
<path d="M697.394 198.258V369.76" stroke="#231F20" stroke-width="0.88" stroke-miterlimit="10"/>
<path d="M825.092 198.258V369.76" stroke="#231F20" stroke-width="0.88" stroke-miterlimit="10"/>
<path d="M782.522 198.258V369.76" stroke="#231F20" stroke-width="0.88" stroke-miterlimit="10"/>
<path d="M569.696 198.258V369.76" stroke="#231F20" stroke-width="0.88" stroke-miterlimit="10"/>
<path d="M527.126 198.258V369.76" stroke="#231F20" stroke-width="0.88" stroke-miterlimit="10"/>
<path d="M654.824 198.258V369.76" stroke="#231F20" stroke-width="0.88" stroke-miterlimit="10"/>
<path d="M612.265 198.258V369.76" stroke="#231F20" stroke-width="0.88" stroke-miterlimit="10"/>
<path d="M910.22 198.258V369.76" stroke="#231F20" stroke-width="0.88" stroke-miterlimit="10"/>
<path d="M952.779 198.258V369.76" stroke="#231F20" stroke-width="0.88" stroke-miterlimit="10"/>
<path d="M867.651 198.258V369.76" stroke="#231F20" stroke-width="0.88" stroke-miterlimit="10"/>
<path d="M1037.91 198.258V369.76" stroke="#231F20" stroke-width="0.88" stroke-miterlimit="10"/>
<path d="M1080.48 198.258V369.76" stroke="#231F20" stroke-width="0.88" stroke-miterlimit="10"/>
<path d="M995.349 198.258V369.76" stroke="#231F20" stroke-width="0.88" stroke-miterlimit="10"/>
<path d="M952.93 241.125H995.823V198.247H952.93V241.125Z" stroke="#231F20" stroke-width="0.85" stroke-miterlimit="10"/>
<path d="M1141.01 416.246H1186.09V371.181H1141.01V416.246Z" stroke="#231F20" stroke-width="0.89" stroke-miterlimit="10"/>
<path d="M229.775 412.401H272.43V369.76H229.775V412.401Z" stroke="#231F20" stroke-width="0.84" stroke-miterlimit="10"/>
<path d="M229.775 455.247H272.43V412.606H229.775V455.247Z" stroke="#231F20" stroke-width="0.84" stroke-miterlimit="10"/>
<path d="M272.43 198.247H315.086V155.606H272.43V198.247Z" stroke="#231F20" stroke-width="0.84" stroke-miterlimit="10"/>
<path d="M358.259 326.364H315.215V369.393H358.259V326.364Z" fill="#231F20" stroke="#231F20" stroke-width="0.89" stroke-miterlimit="10"/>
<path d="M187.14 241.103H144.097V284.132H187.14V241.103Z" fill="#231F20" stroke="#231F20" stroke-width="0.89" stroke-miterlimit="10"/>
<path d="M707 650.781H749.796V608H707V650.781Z" stroke="#231F20" stroke-width="0.89" stroke-miterlimit="10"/>
<path d="M1123.45 198.258V155.476H1080.65V198.258H1123.45Z" stroke="#231F20" stroke-width="0.89" stroke-miterlimit="10"/>
<path d="M1038.14 284.003V241.222H995.349V284.003H1038.14Z" fill="white" stroke="#231F20" stroke-width="0.89" stroke-miterlimit="10"/>
<path d="M995.349 284.003L1080.66 198.258" stroke="#231F20" stroke-width="0.89" stroke-miterlimit="10"/>
<path d="M995.823 198.182H952.779V241.211H995.823V198.182Z" fill="#231F20" stroke="#231F20" stroke-width="0.89" stroke-miterlimit="10"/>
<path d="M79.3621 368.51H36.5662V411.291H79.3621V368.51Z" stroke="#231F20" stroke-width="0.89" stroke-miterlimit="10"/>
<path d="M189.8 477.305H147.004V520.086H189.8V477.305Z" stroke="white" stroke-width="0.89" stroke-miterlimit="10"/>
<path d="M147.004 477.305L79.3621 411.291" stroke="#231F20" stroke-width="0.89" stroke-miterlimit="10"/>
<path d="M1038.91 283.718L1038.14 284.48L1078.88 325.203L1079.64 324.441L1038.91 283.718Z" fill="#231F20"/>
<path d="M1078.9 283.757L1038.2 324.515L1038.96 325.276L1079.66 284.518L1078.9 283.757Z" fill="#231F20"/>
</g>
<path d="M541.736 784.602V611" stroke="#231F20" stroke-width="0.89" stroke-miterlimit="10"/>
<path d="M584.629 784.602V611" stroke="#231F20" stroke-width="0.89" stroke-miterlimit="10"/>
<path d="M455.961 784.602V611" stroke="#231F20" stroke-width="0.89" stroke-miterlimit="10"/>
<path d="M413.068 784.602V611" stroke="#231F20" stroke-width="0.89" stroke-miterlimit="10"/>
<path d="M498.854 784.602V611" stroke="#231F20" stroke-width="0.89" stroke-miterlimit="10"/>
<path d="M413.068 784.602H584.629" stroke="#231F20" stroke-width="0.89" stroke-miterlimit="10"/>
<path d="M413.068 741.961H584.629" stroke="#231F20" stroke-width="0.89" stroke-miterlimit="10"/>
<path d="M413.068 653.641H584.629" stroke="#231F20" stroke-width="0.89" stroke-miterlimit="10"/>
<path d="M413.068 611H584.629" stroke="#231F20" stroke-width="0.89" stroke-miterlimit="10"/>
<path d="M413.068 696.282H584.629" stroke="#231F20" stroke-width="0.89" stroke-miterlimit="10"/>
<path d="M498.843 696.175H541.639V653.394H498.843V696.175Z" fill="#EE2928" stroke="#231F20" stroke-width="0.89" stroke-miterlimit="10"/>
<defs>
<clipPath id="clip0_1_3">
<rect width="1212" height="739" fill="white" transform="translate(0 115)"/>
</clipPath>
</defs>
</svg>
