<svg width="673" height="269" viewBox="0 0 673 269" fill="none" xmlns="http://www.w3.org/2000/svg">
<g clip-path="url(#clip0_2037_532)">
<path d="M441.629 1.02081H529.635L641.539 268.268H545.185L531.152 232.632H438.214L424.563 268.268H329.726L441.629 1.02081ZM509.153 169.713L484.874 105.268L460.595 169.713H509.153Z" fill="url(#paint0_linear_2037_532)"/>
<path d="M642.643 269H544.69L530.657 233.364H438.72L425.068 269H328.632L329.055 267.989L441.144 0.288696H530.12L530.306 0.742391L642.633 269H642.643ZM545.691 267.536H640.445L529.15 1.75289H442.125L330.83 267.536H424.057L437.708 231.9H531.648L545.681 267.536H545.691ZM510.216 170.445H459.542L484.874 103.195L510.206 170.445H510.216ZM461.658 168.981H508.091L484.874 107.35L461.658 168.981Z" fill="white"/>
<g style="mix-blend-mode:multiply" opacity="0.45">
<path d="M364.035 184.21C364.035 184.21 366.191 212.783 377.16 224.012L495.905 110.186V2.82526H442.104L363.003 184.21H364.035Z" fill="#08069D"/>
</g>
<path d="M457.334 170.156H511.847L483.966 100.339L457.334 170.156Z" fill="black"/>
<path d="M512.93 170.888H456.282L483.956 98.3281L512.93 170.888ZM458.397 169.424H510.763L483.976 102.36L458.397 169.424Z" fill="black"/>
<path fill-rule="evenodd" clip-rule="evenodd" d="M288.132 2.17566L463.866 181.251C463.866 181.251 464.052 190.562 463.866 190.748L388.386 268.113H377.872L201.241 88.6974V83.0674L282.86 2.20659L288.143 2.16534L288.132 2.17566Z" fill="#2A5CFF"/>
<path d="M388.386 268.845H377.872C377.676 268.845 377.49 268.763 377.346 268.629L200.714 89.213C200.58 89.0789 200.508 88.8933 200.508 88.6974V83.0675C200.508 82.8716 200.591 82.686 200.725 82.5519L282.344 1.69107C282.478 1.55702 282.664 1.48484 282.849 1.47453L288.132 1.43329C288.401 1.43329 288.617 1.55702 288.751 1.76325L464.382 180.736C464.516 180.87 464.588 181.045 464.588 181.231C464.774 190.851 464.65 190.985 464.371 191.263L388.892 268.618C388.758 268.763 388.562 268.835 388.366 268.835L388.386 268.845ZM378.171 267.381H388.066L463.174 190.408C463.236 189.459 463.205 185.335 463.133 181.561L287.812 2.89749L283.159 2.92842L201.963 83.3665V88.3881L378.161 267.371L378.171 267.381Z" fill="white"/>
<path d="M287.7 87.2464L286.646 88.2639L378.312 183.055L379.366 182.037L287.7 87.2464Z" fill="white"/>
<path d="M463.948 181.653H378.315V268.113H463.948V181.653Z" fill="#EE2928"/>
<path d="M464.681 268.845H377.583V180.921H464.681V268.845ZM379.048 267.381H463.216V182.385H379.048V267.381Z" fill="white"/>
<path d="M287.162 1.87665H200.807V87.7591H287.162V1.87665Z" fill="url(#paint1_linear_2037_532)"/>
<path d="M287.885 88.4809H200.064V1.14453H287.885V88.4912V88.4809ZM201.54 87.0167H286.43V2.60873H201.54V87.027V87.0167Z" fill="white"/>
<path d="M201.444 1.37363L200.411 2.4115L286.658 88.1785L287.691 87.1406L201.444 1.37363Z" fill="white"/>
<path d="M286.655 1.36052L200.408 87.1275L201.441 88.1654L287.689 2.39839L286.655 1.36052Z" fill="white"/>
<path d="M0.753174 0.82489H180.531C247.251 0.82489 301.422 54.959 301.422 121.632V146.997C301.422 213.835 247.116 268.103 180.232 268.103H0.753174V0.82489Z" fill="url(#paint2_linear_2037_532)"/>
<path d="M180.232 268.835H0.020752V0.0927734H180.532C247.591 0.0927734 302.155 54.6187 302.155 121.632V146.997C302.155 214.175 247.457 268.835 180.232 268.835ZM1.48597 267.371H180.232C246.652 267.371 300.69 213.371 300.69 146.997V121.632C300.69 55.423 246.786 1.55697 180.532 1.55697H1.48597V267.371Z" fill="white"/>
<g style="mix-blend-mode:multiply" opacity="0.45">
<path d="M289.288 70.6527C289.288 70.6527 281.136 53.3504 270.178 42.1215L147.275 165.63V267.134H194.358L289.288 70.6527Z" fill="#08069D"/>
</g>
<path fill-rule="evenodd" clip-rule="evenodd" d="M90.4207 181.2V91.1102H178.881C203.779 91.1102 223.962 111.279 223.962 136.16C223.962 161.041 203.779 181.21 178.881 181.21H90.4207V181.2Z" fill="black"/>
<path d="M90.4205 0.82489H0.753174V91.0174H90.4205V0.82489Z" fill="#EE2928"/>
<path d="M91.1738 91.7702H0V0.0722046H91.1738V91.7702ZM1.50649 90.2647H89.6673V1.57765H1.50649V90.2647Z" fill="#231F20"/>
<path d="M1.29272 0.297131L0.223389 1.35754L89.8836 91.646L90.9529 90.5855L1.29272 0.297131Z" fill="#231F20"/>
<path fill-rule="evenodd" clip-rule="evenodd" d="M175.269 179.674L357.771 0.824922C357.771 0.824922 367.264 0.639319 367.45 0.824922L446.293 77.6438V88.3468L263.451 268.103H257.713L175.3 185.035L175.259 179.663L175.269 179.674Z" fill="#2A5CFF"/>
<path d="M263.451 268.835H257.713C257.517 268.835 257.332 268.753 257.198 268.618L174.784 185.551C174.65 185.417 174.578 185.231 174.567 185.046L174.526 179.674C174.526 179.416 174.65 179.189 174.856 179.055L357.256 0.298998C357.39 0.164952 357.565 0.0927733 357.751 0.0927733C367.553 -0.103141 367.687 0.0309057 367.966 0.30931L446.799 77.1178C446.943 77.2519 447.016 77.4478 447.016 77.6437V88.3468C447.016 88.5427 446.933 88.7283 446.799 88.8727L263.956 268.629C263.822 268.763 263.636 268.835 263.44 268.835H263.451ZM258.023 267.371H263.151L445.561 88.0375V77.953L367.099 1.50542C366.129 1.44355 361.919 1.47448 358.071 1.54666L175.991 179.983L176.033 184.726L258.023 267.361V267.371Z" fill="white"/>
<path d="M262.481 180.653H175.269V268.113H262.481V180.653Z" fill="white"/>
<path d="M263.213 268.845H174.537V179.921H263.213V268.845ZM176.002 267.381H261.748V181.385H176.002V267.381Z" fill="white"/>
<path d="M358.581 86.8364L261.948 180.089L262.966 181.142L359.599 87.8897L358.581 86.8364Z" fill="white"/>
<path d="M446.294 0.82489H359.082V87.3672H446.294V0.82489Z" fill="black"/>
<path d="M447.026 88.0993H358.349V0.0927734H447.026V88.0993ZM359.815 86.6351H445.561V1.55697H359.815V86.6351Z" fill="white"/>
<path d="M672.288 98.4312H588.017V182.241H672.288V98.4312Z" fill="url(#paint3_linear_2037_532)"/>
<path d="M673 182.942H587.326V97.73H673V182.942ZM588.719 181.54H671.586V99.1324H588.719V181.54Z" fill="white"/>
<path d="M588.465 98.0024L587.475 98.9966L671.66 182.683L672.649 181.689L588.465 98.0024Z" fill="white"/>
<path d="M671.718 98.09L587.533 181.777L588.523 182.771L672.708 99.0842L671.718 98.09Z" fill="white"/>
</g>
<defs>
<linearGradient id="paint0_linear_2037_532" x1="388.283" y1="115.352" x2="654.856" y2="239.745" gradientUnits="userSpaceOnUse">
<stop stop-color="#08069D"/>
<stop offset="0.97" stop-color="#0741FF"/>
</linearGradient>
<linearGradient id="paint1_linear_2037_532" x1="244.743" y1="120.941" x2="243.352" y2="-17.0445" gradientUnits="userSpaceOnUse">
<stop offset="0.12" stop-color="#1D62DB"/>
<stop offset="1" stop-color="#1447DB"/>
</linearGradient>
<linearGradient id="paint2_linear_2037_532" x1="349.496" y1="268.299" x2="108.731" y2="135.678" gradientUnits="userSpaceOnUse">
<stop stop-color="#08069D"/>
<stop offset="1" stop-color="#0741FF"/>
</linearGradient>
<linearGradient id="paint3_linear_2037_532" x1="629.405" y1="66.0436" x2="630.765" y2="200.709" gradientUnits="userSpaceOnUse">
<stop offset="0.12" stop-color="#1D62DB"/>
<stop offset="1" stop-color="#1447DB"/>
</linearGradient>
<clipPath id="clip0_2037_532">
<rect width="673" height="269" fill="white"/>
</clipPath>
</defs>
</svg>
