<svg width="1024" height="1024" viewBox="0 0 1024 1024" fill="none" xmlns="http://www.w3.org/2000/svg">
<path d="M22 367L0 261L93 242L71 152L176 127L196 220L288 200L266 108L371 86L391 178L481 156L462 66L567 42L587 134L677 115L657 22L763 0L782 93L872 71L897 176L804 196L824 288L916 266L938 371L846 391L868 484L958 462L982 567L890 587L909 679L1002 657L1024 763L931 782L953 872L848 897L828 804L736 824L758 916L653 938L633 848L540 868L562 958L457 982L437 890L345 909L367 1002L261 1024L242 931L152 953L127 848L220 828L200 736L108 758L86 653L176 633L156 543L66 562L42 457L134 437L115 347L22 367Z" fill="#1AA3DE"/>
</svg>
