<svg width="1007" height="1008" viewBox="0 0 1007 1008" fill="none" xmlns="http://www.w3.org/2000/svg">
<path d="M504 1008C538 1008 571.333 1004.67 604 998C636.667 991.333 668.667 981.333 700 968C730 955.333 758.333 940 785 922C811.667 904 836.667 883.333 860 860C882.667 836.667 903.167 811.667 921.5 785C939.833 758.333 955.333 730 968 700C980.667 668.667 990.333 636.667 997 604C1003.67 571.333 1007 538 1007 504C1007 470 1003.67 436.5 997 403.5C990.333 370.5 980.667 338.667 968 308C955.333 278 939.833 249.5 921.5 222.5C903.167 195.5 882.667 170.667 860 148C836.667 124.667 811.667 104 785 86C758.333 68 730 52.6667 700 40C668.667 26.6667 636.667 16.6667 604 10C571.333 3.33333 538 0 504 0C470 0 436.5 3.33333 403.5 10C370.5 16.6667 338.333 26.6667 307 40C277 52.6667 248.667 68 222 86C195.333 104 170.333 124.667 147 148C124.333 170.667 103.833 195.5 85.5 222.5C67.1667 249.5 51.6667 278 39 308C26.3333 338.667 16.6667 370.5 10 403.5C3.33333 436.5 0 470 0 504C0 538 3.33333 571.333 10 604C16.6667 636.667 26.3333 668.667 39 700C51.6667 730 67.1667 758.333 85.5 785C103.833 811.667 124.333 836.667 147 860C170.333 883.333 195.333 904 222 922C248.667 940 277 955.333 307 968C338.333 981.333 370.5 991.333 403.5 998C436.5 1004.67 470 1008 504 1008ZM504 53C534 53 563.667 56 593 62C622.333 68 651 77 679 89C705.667 100.333 731 114 755 130C779 146 801.333 164.333 822 185C842.667 205.667 861.167 228 877.5 252C893.833 276 907.667 301.333 919 328C930.333 356 939 384.667 945 414C951 443.333 954 473.333 954 504C954 534 951 563.833 945 593.5C939 623.167 930.333 651.667 919 679C907.667 705.667 893.833 731 877.5 755C861.167 779 842.667 801.333 822 822C801.333 842.667 779 861.167 755 877.5C731 893.833 705.667 907.667 679 919C651 931 622.333 939.833 593 945.5C563.667 951.167 534 954 504 954C473.333 954 443.333 951.167 414 945.5C384.667 939.833 356 931 328 919C301.333 907.667 276 893.833 252 877.5C228 861.167 205.667 842.667 185 822C164.333 801.333 145.833 779 129.5 755C113.167 731 99.3333 705.667 88 679C76.6667 651.667 68 623.167 62 593.5C56 563.833 53 534 53 504C53 473.333 56 443.333 62 414C68 384.667 76.6667 356 88 328C99.3333 301.333 113.167 276 129.5 252C145.833 228 164.333 205.667 185 185C205.667 164.333 228 146 252 130C276 114 301.333 100.333 328 89C356 77 384.667 68 414 62C443.333 56 473.333 53 504 53ZM131 197L881 197L854 144L202 144L131 197ZM966 369L40 369V422L966 422V369ZM158 860L839 860L888 806L115 806L158 860ZM963 589L37 589V642L963 642V589ZM174 877L227 910L227 103L174 143L174 877ZM430 42H377L377 968H430L430 42ZM776 910L829 883L829 130L776 102L776 910ZM631 44H577L577 971H631L631 44Z" fill="#B3B3B3"/>
</svg>
