<svg width="1013" height="1013" viewBox="0 0 1013 1013" fill="none" xmlns="http://www.w3.org/2000/svg">
<path d="M507 0C577 0 642.667 13.3333 704 40C765.333 66.6667 819 102.833 865 148.5C911 194.167 947 247.667 973 309C999.667 371 1013 436.667 1013 506C1013 576 999.667 642 973 704C947 765.333 911 818.833 865 864.5C819 910.167 765.333 946.333 704 973C642.667 999.667 577 1013 507 1013C437 1013 371.333 999.667 310 973C248 946.333 194.167 910.167 148.5 864.5C102.833 818.833 66.6667 765.333 40 704C13.3333 642 0 576 0 506C0 436.667 13.3333 371 40 309C66.6667 247.667 102.833 194.167 148.5 148.5C194.167 102.833 248 66.6667 310 40C371.333 13.3333 437 0 507 0ZM415 852L598 852V390L413 390L413 852H415ZM415 299L598 299V161L413 161V299H415Z" fill="#1AA3DE"/>
</svg>
