<svg width="23" height="24" viewBox="0 0 23 24" fill="none" xmlns="http://www.w3.org/2000/svg">
<path d="M19.2835 4.98042C17.9233 4.35459 16.4609 3.8948 14.9347 3.63298C14.9091 3.63298 14.8772 3.63936 14.8644 3.66491C14.6792 3.99698 14.4685 4.43123 14.3216 4.77607C12.6804 4.5334 11.0456 4.5334 9.43631 4.77607C9.28943 4.42484 9.07231 3.99698 8.88712 3.66491C8.87434 3.63936 8.84241 3.62659 8.81687 3.63298C7.29061 3.8948 5.8346 4.35459 4.46799 4.98042C4.45522 4.98042 4.44884 4.9932 4.44245 5.00597C1.67731 9.1441 0.917372 13.1801 1.29415 17.1649C1.29415 17.1841 1.30692 17.2033 1.31969 17.216C3.14609 18.5571 4.91502 19.3745 6.65201 19.9109C6.67755 19.9173 6.70949 19.9109 6.72864 19.8854C7.13735 19.3234 7.50774 18.7359 7.82065 18.1101C7.83981 18.0718 7.82065 18.0334 7.78234 18.0143C7.20121 17.7908 6.64563 17.5226 6.11559 17.2224C6.07088 17.1969 6.07088 17.1394 6.1092 17.1075C6.22415 17.0244 6.33271 16.935 6.44127 16.8456C6.46043 16.8265 6.48597 16.8265 6.51152 16.8392C10.0047 18.4358 13.7916 18.4358 17.2464 16.8392C17.2719 16.8265 17.2975 16.8329 17.3167 16.8456C17.4252 16.935 17.5338 17.0244 17.6487 17.1075C17.687 17.1394 17.687 17.1969 17.6487 17.2224C17.1187 17.5353 16.5631 17.7972 15.982 18.0143C15.9437 18.027 15.9245 18.0718 15.9437 18.1101C16.263 18.7295 16.6333 19.3234 17.0357 19.8854C17.0548 19.9109 17.0804 19.9173 17.1123 19.9109C18.8557 19.3681 20.6246 18.5571 22.451 17.216C22.4702 17.2033 22.4766 17.1841 22.4766 17.1649C22.9236 12.5606 21.7294 8.55659 19.3219 5.01235C19.3219 4.99958 19.3027 4.9932 19.2963 4.98681L19.2835 4.98042ZM8.33792 14.7383C7.28423 14.7383 6.41573 13.774 6.41573 12.5862C6.41573 11.3984 7.26507 10.4341 8.33792 10.4341C9.41077 10.4341 10.2729 11.4111 10.2601 12.5862C10.2601 13.774 9.41077 14.7383 8.33792 14.7383ZM15.4328 14.7383C14.3791 14.7383 13.5106 13.774 13.5106 12.5862C13.5106 11.3984 14.3599 10.4341 15.4328 10.4341C16.5056 10.4341 17.3677 11.4111 17.355 12.5862C17.355 13.774 16.512 14.7383 15.4328 14.7383Z" fill="white"/>
</svg>
