<svg width="1022" height="863" viewBox="0 0 1022 863" fill="none" xmlns="http://www.w3.org/2000/svg">
<path d="M0 458L216 228V364C266.667 367.333 314.333 382 359 408C403 434.667 441.5 470.167 474.5 514.5C507.5 558.833 533.333 610.667 552 670C571.333 729.333 581 793.667 581 863L392 863C392 822.333 387 783.333 377 746C367 708.667 353.833 675.333 337.5 646C321.167 616.667 302.333 592.333 281 573C260.333 554.333 238.667 543.333 216 540V687L0 458ZM606 380C585.333 392.667 567.667 406.167 553 420.5C538.333 434.833 524.667 451.667 512 471C500 451.667 485.5 435.167 468.5 421.5C451.5 407.833 435 395 419 383V216H298L510 0L726 216H606V380ZM537 526C553 502.667 571.333 481.333 592 462C612.667 442.667 634.667 426 658 412C681.333 398 705.667 386.667 731 378C755.667 370 780.667 365.333 806 364L806 230L1022 458L806 687V553C786 555.667 766 564 746 578C726.667 592 708.833 610.333 692.5 633C676.167 655.667 662.667 681.667 652 711C640.667 741 633.667 773.333 631 808C628.333 752 618.667 700.333 602 653C585.333 605.667 563.667 563.333 537 526Z" fill="#1AA3DE"/>
</svg>
