<svg width="432" height="79" viewBox="0 0 432 79" fill="none" xmlns="http://www.w3.org/2000/svg">
<path d="M63.8264 54.2257L60.5128 59.8082L36.4794 73.9908L34.2637 72.5524V55.1813L63.507 37.4983L63.8264 54.2257Z" fill="#DF0000"/>
<path d="M3.90234 54.2257L7.2259 59.8082L31.2593 73.9908L33.475 72.5524V55.1813L4.22172 37.4983L3.90234 54.2257Z" fill="#001242"/>
<path d="M34.1039 47.5367L63.1975 30.1656L56.0813 25.8605L34.1039 37.8101L12.1265 25.2268L4.85059 30.0046L34.1039 47.5367Z" fill="#BADAFF"/>
<path d="M34.0239 55.1813L63.6665 37.3173L58.4566 33.5151L34.5728 47.3758L9.75096 33.5151L4.22168 37.1563L34.0239 55.1813Z" fill="black"/>
<path d="M4.54102 20.61L30.9398 4.82812L34.3133 5.89433L37.2676 4.98906L63.8261 20.61L33.944 37.6593L4.54102 20.61Z" fill="#7BB3FF"/>
<path d="M33.9438 5.79374C35.2556 5.79374 36.3192 4.72194 36.3192 3.3998C36.3192 2.07766 35.2556 1.00586 33.9438 1.00586C32.6319 1.00586 31.5684 2.07766 31.5684 3.3998C31.5684 4.72194 32.6319 5.79374 33.9438 5.79374Z" fill="black"/>
<path d="M64.4652 60.6028C65.7771 60.6028 66.8406 59.531 66.8406 58.2089C66.8406 56.8867 65.7771 55.8149 64.4652 55.8149C63.1533 55.8149 62.0898 56.8867 62.0898 58.2089C62.0898 59.531 63.1533 60.6028 64.4652 60.6028Z" fill="black"/>
<path d="M3.27383 60.6028C4.58573 60.6028 5.64923 59.531 5.64923 58.2089C5.64923 56.8867 4.58573 55.8149 3.27383 55.8149C1.96194 55.8149 0.898438 56.8867 0.898438 58.2089C0.898438 59.531 1.96194 60.6028 3.27383 60.6028Z" fill="black"/>
<path d="M33.9438 77.9739C35.2556 77.9739 36.3192 76.9021 36.3192 75.58C36.3192 74.2578 35.2556 73.186 33.9438 73.186C32.6319 73.186 31.5684 74.2578 31.5684 75.58C31.5684 76.9021 32.6319 77.9739 33.9438 77.9739Z" fill="black"/>
<path d="M33.9342 1.64961C34.9522 1.64961 35.7706 2.47441 35.7706 3.50038C35.7706 4.52636 34.9522 5.35116 33.9342 5.35116C32.9162 5.35116 32.0978 4.52636 32.0978 3.50038C32.0978 2.47441 32.9162 1.64961 33.9342 1.64961ZM33.9342 0C32.0179 0 30.4609 1.56914 30.4609 3.50038C30.4609 5.43163 32.0179 7.00076 33.9342 7.00076C35.8505 7.00076 37.4075 5.43163 37.4075 3.50038C37.4075 1.56914 35.8505 0 33.9342 0Z" fill="#2E62FF"/>
<path d="M64.2057 56.1569C65.2237 56.1569 66.0421 56.9817 66.0421 58.0077C66.0421 59.0337 65.2237 59.8585 64.2057 59.8585C63.1877 59.8585 62.3693 59.0337 62.3693 58.0077C62.3693 56.9817 63.1877 56.1569 64.2057 56.1569ZM64.2057 54.5073C62.2894 54.5073 60.7324 56.0765 60.7324 58.0077C60.7324 59.939 62.2894 61.5081 64.2057 61.5081C66.122 61.5081 67.679 59.939 67.679 58.0077C67.679 56.0765 66.122 54.5073 64.2057 54.5073Z" fill="#0036D0"/>
<path d="M33.9342 73.6489C34.9522 73.6489 35.7706 74.4737 35.7706 75.4996C35.7706 76.5256 34.9522 77.3504 33.9342 77.3504C32.9162 77.3504 32.0978 76.5256 32.0978 75.4996C32.0978 74.4737 32.9162 73.6489 33.9342 73.6489ZM33.9342 71.9993C32.0179 71.9993 30.4609 73.5684 30.4609 75.4996C30.4609 77.4309 32.0179 79 33.9342 79C35.8505 79 37.4075 77.4309 37.4075 75.4996C37.4075 73.5684 35.8505 71.9993 33.9342 71.9993Z" fill="#0036D0"/>
<path d="M3.47327 56.1569C4.49129 56.1569 5.30971 56.9817 5.30971 58.0077C5.30971 59.0337 4.49129 59.8585 3.47327 59.8585C2.45524 59.8585 1.63683 59.0337 1.63683 58.0077C1.63683 56.9817 2.45524 56.1569 3.47327 56.1569ZM3.47327 54.5073C1.55698 54.5073 0 56.0765 0 58.0077C0 59.939 1.55698 61.5081 3.47327 61.5081C5.38955 61.5081 6.94654 59.939 6.94654 58.0077C6.94654 56.0765 5.38955 54.5073 3.47327 54.5073Z" fill="#0036D0"/>
<path d="M31.3198 74.5239C31.18 74.5239 31.0403 74.4836 30.9106 74.4132L5.78925 59.8082C5.4 59.5768 5.26027 59.0739 5.48983 58.6816C5.71938 58.2893 6.21842 58.1485 6.60766 58.3799L31.729 72.9849C32.1182 73.2162 32.2579 73.7192 32.0284 74.1115C31.8787 74.373 31.5992 74.5239 31.3198 74.5239Z" fill="#0036D0"/>
<path d="M3.98248 55.5836C3.53335 55.5836 3.16406 55.2114 3.16406 54.7588L3.24391 37.4379C3.24391 37.0959 3.43354 36.7841 3.72298 36.6131C4.01242 36.4421 4.3817 36.4421 4.67114 36.6131L34.4434 53.934C34.8327 54.1653 34.9724 54.6682 34.7429 55.0605C34.5133 55.4528 34.0143 55.5936 33.625 55.3623L4.87075 38.6248L4.80089 54.7588C4.80089 55.2114 4.43161 55.5836 3.98248 55.5836Z" fill="#0036D0"/>
<path d="M36.3293 74.7753C36.0499 74.7753 35.7704 74.6244 35.6207 74.3629C35.3911 73.9706 35.5309 73.4677 35.9201 73.2364L61.251 58.6313C61.6403 58.4 62.1393 58.5408 62.3688 58.9331C62.5984 59.3254 62.4587 59.8283 62.0694 60.0596L36.7385 74.6647C36.6088 74.7351 36.469 74.7753 36.3293 74.7753Z" fill="#0036D0"/>
<path d="M34.0342 73.4879C33.5851 73.4879 33.2158 73.1158 33.2158 72.6631V54.1654L63.1777 36.7339C63.5171 36.5428 63.9363 36.5428 64.2656 36.7339C64.605 36.925 64.8146 37.2972 64.8146 37.6895V55.0606C64.8246 55.5133 64.4652 55.8854 64.0061 55.8854C63.557 55.8854 63.1877 55.5133 63.1877 55.0606V38.645L34.8427 55.131V72.6832C34.8427 73.1359 34.4734 73.508 34.0243 73.508L34.0342 73.4879Z" fill="#0036D0"/>
<path d="M34.0242 55.6037L3.3836 37.7698L3.32371 37.2367C3.31373 36.9149 3.46344 36.6232 3.73292 36.4421L9.07257 32.8612C9.45183 32.6098 9.96085 32.7104 10.2104 33.0926C10.4599 33.4748 10.3601 33.9878 9.98081 34.2393L5.61926 37.1663L34.0342 53.7026L62.4391 37.1764L58.397 34.5611C58.0177 34.3197 57.9079 33.8068 58.1474 33.4245C58.387 33.0423 58.896 32.9317 59.2753 33.1731L64.7447 36.7137L64.7646 37.2267C64.7646 37.5385 64.585 37.8201 64.3255 37.971L34.0342 55.6037H34.0242Z" fill="#0036D0"/>
<path d="M34.0245 48.432C33.8848 48.432 33.745 48.3918 33.6153 48.3214L3.65335 30.8899C3.40383 30.739 3.24414 30.4674 3.24414 30.1757C3.24414 29.884 3.40383 29.6125 3.65335 29.4616L12.0271 24.5932C12.4164 24.3619 12.9254 24.5027 13.1449 24.895C13.3745 25.2873 13.2348 25.7902 12.8455 26.0215L5.69938 30.1757L34.0245 46.6617L62.14 30.3065L54.9938 26.1523C54.6046 25.921 54.4649 25.418 54.6944 25.0257C54.924 24.6335 55.423 24.4926 55.8122 24.724L64.186 29.5923C64.4355 29.7432 64.5952 30.0148 64.5952 30.3065C64.5952 30.5982 64.4355 30.8698 64.186 31.0207L34.4337 48.3315C34.3039 48.4019 34.1642 48.4421 34.0245 48.4421V48.432Z" fill="#2E62FF"/>
<path d="M34.0245 38.6954C33.8848 38.6954 33.745 38.6552 33.6153 38.5847L3.65335 21.1432C3.40383 20.9923 3.24414 20.7207 3.24414 20.429C3.24414 20.1373 3.40383 19.8658 3.65335 19.7149L30.8307 3.9028C31.2199 3.67146 31.7189 3.81228 31.9485 4.20456C32.1781 4.59684 32.0383 5.09977 31.6491 5.33112L5.69938 20.429L34.0245 36.915L62.14 20.5598L36.2402 5.46188C35.8509 5.23053 35.7112 4.72761 35.9408 4.33532C36.1703 3.94304 36.6694 3.80222 37.0586 4.03356L64.186 19.8557C64.4355 20.0066 64.5952 20.2782 64.5952 20.5699C64.5952 20.8616 64.4355 21.1331 64.186 21.284L34.4337 38.5948C34.3039 38.6652 34.1642 38.7055 34.0245 38.7055V38.6954Z" fill="#2E62FF"/>
<g clip-path="url(#clip0_223_2171)">
<path d="M102.756 46.066H107.518V50.9902L103.57 53.2985H93.9477L90 50.9902V31.1624L93.9477 28.8618H103.577L107.525 31.1701V36.0943H102.764V33.0013H94.7616V49.1744H102.756V46.0813V46.066Z" fill="black"/>
<path d="M127.081 50.9824L123.133 53.2906H115.884L111.937 50.9824V38.0485L115.884 35.7402H123.133L127.081 38.0485V50.9901V50.9824ZM116.607 39.7643V49.2589H122.426V39.7643H116.607Z" fill="black"/>
<path d="M154.731 38.0485V53.1213H150.068V39.7643H145.101V53.1136H140.438V39.7643H135.471V53.1136H130.809V35.7402H134.65L135.464 37.1483L137.875 35.7402H141.138L144.302 37.6022L147.497 35.7402H150.76L154.708 38.0485H154.731Z" fill="black"/>
<path d="M170.005 53.2906H165.547L163.129 51.8826V59.9999H158.466V35.7402H162.307L163.121 37.1483L165.54 35.7402H169.997L173.945 38.0485V50.9901L169.997 53.2983L170.005 53.2906ZM163.136 39.7643V49.2589H169.29V39.7643H163.136Z" fill="black"/>
<path d="M192.146 50.9824L188.199 53.2906H180.95L177.002 50.9824V38.0485L180.95 35.7402H188.199L192.146 38.0485V50.9901V50.9824ZM181.672 39.7643V49.2589H187.491V39.7643H181.672Z" fill="black"/>
<path d="M210.349 38.0485V53.1213H205.686V39.7643H199.867V53.1136H195.205V35.7402H199.046L199.86 37.1483L202.279 35.7402H206.394L210.341 38.0485H210.349Z" fill="black"/>
<path d="M227.524 49.0896V53.1136H217.354L213.407 50.8054V38.0485L217.354 35.7402H223.577L227.524 38.0485V46.2735H218.069V49.0973H227.524V49.0896ZM218.069 39.7643V42.7265H222.869V39.7643H218.069Z" fill="black"/>
<path d="M245.726 38.0485V53.1213H241.064V39.7643H235.245V53.1136H230.582V35.7402H234.423L235.237 37.1483L237.656 35.7402H241.771L245.719 38.0485H245.726Z" fill="black"/>
<path d="M248.107 39.9414V35.9174H251.233V33.0244L255.896 30.3083V35.9174H259.638V39.9414H255.896V49.0975H259.638V53.1215H255.181L251.233 50.8133V39.9414H248.107Z" fill="black"/>
<path d="M273.247 40.9031V31.1623L277.194 28.854H285.797L289.745 31.1623V35.7403H284.983V32.9858H278.008V38.7333H285.797L289.745 41.0415V50.9824L285.797 53.2906H276.852L272.904 50.9824V46.4044H277.666V49.1589H284.983V43.2036H277.194L273.247 40.8954V40.9031Z" fill="black"/>
<path d="M292.46 39.9414V35.9174H295.586V33.0244L300.249 30.3083V35.9174H303.991V39.9414H300.249V49.0975H303.991V53.1215H299.534L295.586 50.8133V39.9414H292.46Z" fill="black"/>
<path d="M310.32 53.2908L306.372 50.9825V45.0272L310.32 42.719H315.834V39.9337H308.076V35.9097H316.549L320.497 38.2179V53.2908H318.253L315.842 51.8827L313.423 53.2908H310.327H310.32ZM311.035 46.3429V49.336H315.834V46.3429H311.035Z" fill="black"/>
<path d="M334.067 39.9413H328.218V53.1214H323.555V35.9172H327.396L328.21 37.3253L330.629 35.9172H334.067V39.9413Z" fill="black"/>
<path d="M336.106 39.9414V35.9174H339.232V33.0244L343.895 30.3083V35.9174H347.637V39.9414H343.895V49.0975H347.637V53.1215H343.18L339.232 50.8133V39.9414H336.106Z" fill="black"/>
<path d="M364.136 49.0896V53.1136H353.966L350.018 50.8054V38.0485L353.966 35.7402H360.188L364.136 38.0485V46.2735H354.681V49.0973H364.136V49.0896ZM354.681 39.7643V42.7265H359.48V39.7643H354.681Z" fill="black"/>
<path d="M377.705 39.9413H371.856V53.1214H367.193V35.9172H371.035L371.848 37.3253L374.267 35.9172H377.705V39.9413Z" fill="black"/>
<path d="M390.294 53.1214V29.031H395.056V39.8721H395.124L404.001 29.031H409.645L400.258 40.3183L410.702 53.1214H404.99L397.406 43.7653L395.056 46.5506V53.1214H390.294Z" fill="black"/>
<path d="M412.573 32.7165V28H417.571V32.7165H412.573ZM417.403 35.9173V53.1214H412.741V35.9173H417.403Z" fill="black"/>
<path d="M420.469 39.9414V35.9174H423.595V33.0244L428.258 30.3083V35.9174H432V39.9414H428.258V49.0975H432V53.1215H427.543L423.595 50.8133V39.9414H420.469Z" fill="black"/>
</g>
<defs>
<clipPath id="clip0_223_2171">
<rect width="342" height="32" fill="black" transform="translate(90 28)"/>
</clipPath>
</defs>
</svg>
